<?xml version="1.0" encoding="utf-8"?>
<!-- Generator: Adobe Illustrator 24.0.2, SVG Export Plug-In . SVG Version: 6.00 Build 0)  -->
<svg version="1.1" id="Layer_1" xmlns="http://www.w3.org/2000/svg" xmlns:xlink="http://www.w3.org/1999/xlink" x="0px" y="0px"
	 viewBox="0 0 648 362" style="enable-background:new 0 0 648 362;" xml:space="preserve">
<style type="text/css">
	.st0{fill:#EBEBEB;}
	.st1{fill:#FFFFFF;}
	.st2{fill:#DBDBDB;}
	.st3{fill:#C7C7C7;}
	.st4{fill:#A6A6A6;}
	.st5{fill:#263238;}
	.st6{fill:#FCB9AE;}
	.st7{fill:#FF9800;}
	.st8{opacity:0.1;enable-background:new    ;}
	.st9{fill:#455A64;}
	.st10{fill:#FF99BA;}
	.st11{opacity:0.2;fill:#263238;enable-background:new    ;}
	.st12{fill:#37474F;}
</style>
<g id="freepik--background-complete--inject-198">
	<path class="st0" d="M643.2,266.2l-13.1,0.3l-6.7,0.1c-2.2,0-4.5,0-6.7,0.1h-0.4v-0.5l-0.1-11.2v-0.5h0.5l13.2,0.1
		c4.4,0,8.8,0.1,13.2,0.2h0.3v0.3c0,1.9-0.1,3.8-0.1,5.7L643.2,266.2z M643.2,266.2l-0.1-5.6c0-1.9-0.1-3.7-0.1-5.5l0.3,0.3
		c-4.4,0-8.8,0.2-13.2,0.2l-13.2,0.1l0.5-0.5v11.2l-0.5-0.4c2.2,0,4.4,0,6.5,0l6.5,0.2L643.2,266.2z"/>
	<path class="st0" d="M628.4,280.3l-13.1,0.3l-6.7,0.1c-2.2,0-4.5,0-6.7,0.1h-0.4v-0.5v-11.2v-0.5h0.5l13.2,0.1
		c4.4,0,8.8,0.1,13.2,0.2h0.3v0.3c0,1.9-0.1,3.8-0.1,5.7L628.4,280.3z M628.4,280.3l-0.1-5.6c0-1.9-0.1-3.7-0.1-5.5l0.3,0.3
		c-4.4,0-8.8,0.2-13.2,0.2l-13.2,0.1l0.5-0.5v11.2l-0.5-0.4c2.2,0,4.4,0,6.5,0l6.6,0.1L628.4,280.3z"/>
	<path class="st0" d="M657.9,280.3l-13.1,0.3l-6.7,0.1c-2.2,0-4.5,0-6.7,0.1H631v-0.5l-0.1-11.2v-0.5h0.5l13.2,0.1
		c4.4,0,8.8,0.1,13.2,0.2h0.3v0.3c0,1.9-0.1,3.8-0.1,5.7L657.9,280.3z M657.9,280.3l-0.1-5.6c0-1.9-0.1-3.7-0.1-5.5l0.3,0.3
		c-4.4,0-8.8,0.2-13.2,0.2l-13.2,0.1l0.5-0.5v11.2l-0.5-0.4c2.2,0,4.4,0,6.5,0l6.6,0.1L657.9,280.3z"/>
	<path class="st0" d="M265.7,133.1l-13.1,0.3l-6.7,0.1c-2.2,0-4.5,0-6.7,0h-0.4V133l-0.1-11.2v-0.5h0.5l13.2,0.1
		c4.4,0,8.8,0.1,13.2,0.2h0.3v0.3c0,1.9-0.1,3.8-0.1,5.6L265.7,133.1z M265.7,133.1l-0.1-5.7c0-1.9-0.1-3.7-0.1-5.5l0.3,0.3
		c-4.4,0-8.8,0.2-13.2,0.2l-13.2,0.1l0.5-0.5v11.2l-0.5-0.4c2.2,0,4.4,0,6.5,0.1l6.6,0.1L265.7,133.1z"/>
	<path class="st0" d="M250.9,147.2l-13.1,0.3l-6.7,0.1c-2.2,0-4.5,0-6.7,0.1H224v-0.4l-0.1-11.3v-0.5h0.5l13.2,0.1
		c4.4,0,8.8,0.1,13.2,0.2h0.3v0.3c0,1.9-0.1,3.8-0.1,5.6L250.9,147.2z M250.9,147.2l-0.1-5.7c0-1.9-0.1-3.7-0.1-5.5l0.3,0.3
		c-4.4,0.1-8.8,0.2-13.2,0.2l-13.2,0.1l0.5-0.5v11.2l-0.5-0.4c2.2,0,4.4,0,6.5,0.1l6.6,0.1L250.9,147.2z"/>
	<path class="st0" d="M280.5,147.2l-13.1,0.3l-6.7,0.1c-2.2,0-4.5,0-6.7,0.1h-0.4v-0.4l-0.1-11.2v-0.5h0.5l13.2,0.1
		c4.4,0,8.8,0.1,13.2,0.2h0.3v0.3c0,1.9-0.1,3.8-0.1,5.6L280.5,147.2z M280.5,147.2l-0.1-5.7c0-1.9-0.1-3.7-0.1-5.5l0.3,0.3
		c-4.4,0.1-8.8,0.2-13.2,0.2l-13.2,0.1l0.5-0.5v11.2l-0.5-0.4c2.2,0,4.4,0,6.5,0.1l6.6,0.1L280.5,147.2z"/>
	<path class="st0" d="M49.9,207.1l-13.1,0.3l-6.7,0.1c-2.2,0-4.5,0-6.7,0.1H23v-0.4V196v-0.5h0.5l13.2,0.1c4.4,0,8.8,0.1,13.2,0.2
		h0.3v0.3c0,1.9-0.1,3.8-0.1,5.6L49.9,207.1z M49.9,207.1l-0.1-5.7c0-1.9-0.1-3.7-0.1-5.5l0.3,0.3c-4.4,0.1-8.8,0.2-13.2,0.2
		l-13.2,0.1l0.5-0.5L24,207.2l-0.4-0.4c2.2,0,4.4,0,6.6,0.1l6.6,0.1L49.9,207.1z"/>
	<path class="st0" d="M488.7,133.1l-13.1,0.3l-6.7,0.1c-2.2,0.1-4.5,0-6.7,0.1h-0.4v-0.4l-0.1-11.2v-0.5h0.5l13.2,0.1
		c4.4,0,8.8,0.1,13.2,0.2h0.3v0.3c0,1.9-0.1,3.8-0.1,5.6L488.7,133.1z M488.7,133.1l-0.1-5.6c0-1.9-0.1-3.7-0.1-5.5l0.3,0.3
		c-4.4,0.1-8.8,0.2-13.2,0.2l-13.2,0.1l0.5-0.5v11.2l-0.5-0.4c2.2,0,4.4,0,6.5,0.1l6.6,0.1L488.7,133.1z"/>
	<path class="st0" d="M641.6,24.4l-13.1,0.3l-6.7,0.1c-2.2,0-4.5,0-6.7,0.1h-0.4v-0.4V13.3v-0.5h0.5l13.2,0.1
		c4.4,0,8.8,0.1,13.2,0.2h0.3v0.3c0,1.9-0.1,3.8-0.1,5.7L641.6,24.4z M641.6,24.4l-0.1-5.7c0-1.9-0.1-3.7-0.1-5.5l0.3,0.3
		c-4.4,0-8.8,0.2-13.2,0.2l-13.2,0.1l0.5-0.5v11.2l-0.5-0.4c2.2,0,4.4,0,6.5,0.1l6.6,0.1L641.6,24.4z"/>
	<path class="st0" d="M656.4,38.5l-13.1,0.3l-6.7,0.1c-2.2,0.1-4.5,0-6.7,0.1h-0.4v-0.4l-0.1-11.2v-0.5h0.5l13.2,0.1
		c4.4,0,8.8,0.1,13.2,0.2h0.3v0.3c0,1.9-0.1,3.8-0.1,5.7L656.4,38.5z M656.4,38.5l-0.1-5.7c0-1.9-0.1-3.7-0.1-5.5l0.3,0.3
		c-4.4,0.1-8.8,0.2-13.2,0.2l-13.2,0.1l0.5-0.5v11.2l-0.5-0.4c2.2,0,4.4,0,6.5,0.1l6.6,0.1L656.4,38.5z"/>
	<path class="st0" d="M20.3,24.4L7.2,24.7l-6.7,0.1c-2.2,0-4.5,0-6.7,0.1h-0.5v-0.4V13.3v-0.5h0.5L7,12.9c4.4,0,8.8,0.1,13.2,0.2
		h0.3v0.3c0,1.9-0.1,3.8-0.1,5.7L20.3,24.4z M20.3,24.4l-0.2-5.7c0-1.9-0.1-3.7-0.1-5.5l0.3,0.3c-4.4,0.1-8.8,0.2-13.2,0.2
		l-13.2,0.1l0.5-0.5l-0.1,11.2L-6.1,24c2.2,0,4.3,0,6.5,0L7,24.1L20.3,24.4z"/>
	<g id="freepik--ZZtZDI--inject-198">
		<path class="st0" d="M344.6,163.2c-1.2,1.2-2.7,2-4.4,2.3c-1,0.3-2.1,0.4-3.2,0.6h-3.6c-1.5-0.2-3-0.4-4.5-0.7
			c-5.4-1.2-10.6-3.4-15.1-6.6c-12-7.9-22.1-18.4-29.6-30.6c-2.5-4-4.2-8.5-5.1-13.2c-0.2-1.2-0.4-2.5-0.6-3.7v-3.6
			c0.3-1.4,0.5-2.8,0.9-4.2c0.4-1.3,1.1-2.5,2-3.4c0.2,0.2,0.3,0.3,0.5,0.4c5.8,5.8,11.5,11.5,17.3,17.3c0.4,0.3,0.5,0.8,0.3,1.3
			c-0.9,2.9-0.2,6.1,1.9,8.3c4.9,5.6,10.2,10.9,15.8,15.8c2.3,2.1,5.4,2.8,8.4,1.9c0.4-0.1,0.7-0.2,1.1,0.2
			c5.9,5.9,11.8,11.8,17.7,17.7C344.4,163,344.5,163.1,344.6,163.2z"/>
		<path class="st0" d="M355.9,150.3v1.2c-0.5,0.8-1.1,1.5-1.7,2.2c-1.8,1.9-3.6,3.6-5.4,5.4l-0.6,0.5l-17.8-17.8
			c2.3-2.3,4.6-4.6,7-6.9c1.1-1,2.7-0.9,3.7,0.1c0,0,0,0,0.1,0.1c1.3,1.3,2.6,2.6,4,3.9c3.1,3.1,6.2,6.2,9.3,9.3
			C355,148.9,355.5,149.6,355.9,150.3z"/>
		<path class="st0" d="M309.3,107.8c-2.2,2.1-4.5,4.2-6.6,6.3l-17.6-17.6c0.4-0.4,0.8-0.7,1.3-1.1c1.6-1.6,3.2-3.3,4.9-4.8
			c0.7-0.6,1.4-1.1,2.1-1.6h1.2c0.7,0.4,1.3,0.9,1.9,1.4c4.3,4.3,8.6,8.6,12.9,12.9C310.9,104.7,310.9,106.2,309.3,107.8z"/>
	</g>
	<polygon class="st0" points="13.8,117.6 129.5,117.6 129.5,44.2 13.8,44.2 13.8,44.2 	"/>
	<polygon class="st0" points="151.1,117.6 129.5,117.6 129.5,95 	"/>
	<rect x="27.2" y="56.9" class="st1" width="88.9" height="1.4"/>
	<rect x="27.2" y="64.4" class="st1" width="46" height="1.4"/>
	<rect x="27.2" y="79.5" class="st1" width="71.9" height="1.4"/>
	<rect x="27.2" y="87" class="st1" width="88.9" height="1.4"/>
	<rect x="27.2" y="94.5" class="st1" width="88.9" height="1.4"/>
	<rect x="27.2" y="102.1" class="st1" width="31.6" height="1.4"/>
	<rect x="522.3" y="146.9" class="st2" width="115.7" height="64.8"/>
	<polygon class="st2" points="500.7,211.7 522.3,211.7 522.3,189.1 	"/>
	<rect x="536" y="180.7" class="st1" width="77.4" height="1.4"/>
	<rect x="536" y="188.3" class="st1" width="61.5" height="1.4"/>
	<rect x="536" y="165.6" class="st1" width="66.2" height="1.4"/>
	<rect x="536" y="158.1" class="st1" width="86.4" height="1.4"/>
	<rect x="536" y="195.8" class="st1" width="67.9" height="1.4"/>
	<rect x="367.2" y="78.1" class="st0" width="212.4" height="9.3"/>
	<rect x="379.1" y="87.4" class="st0" width="9.3" height="30.8"/>
	<rect x="379.1" y="87.4" class="st2" width="9.3" height="9.5"/>
	<rect x="558.3" y="87.4" class="st0" width="9.3" height="30.8"/>
	<rect x="558.3" y="87.4" class="st2" width="9.3" height="9.5"/>
	<rect x="406.8" y="18.8" class="st3" width="15" height="59.4"/>
	<rect x="406.8" y="15.6" class="st2" width="15" height="6.5"/>
	<rect x="406.8" y="30.4" class="st2" width="15" height="2.4"/>
	<rect x="406.8" y="63.8" class="st2" width="16.8" height="6.5"/>
	<rect x="421.8" y="8.9" class="st2" width="10.4" height="69.3"/>
	<rect x="423.8" y="15.4" class="st0" width="6.3" height="26.6"/>
	
		<rect x="473" y="15.5" transform="matrix(0.703 -0.7112 0.7112 0.703 106.3942 354.9857)" class="st3" width="10.4" height="69.3"/>
	
		<rect x="478.8" y="40.3" transform="matrix(0.703 -0.7112 0.7112 0.703 105.0196 358.6976)" class="st2" width="6.3" height="26.7"/>
	<rect x="432.2" y="25.5" class="st4" width="17.8" height="52.6"/>
	<rect x="432.2" y="67.6" class="st3" width="17.8" height="4.9"/>
	<rect x="432.2" y="62.5" class="st3" width="17.8" height="1.9"/>
	<rect x="394.6" y="28.6" class="st4" width="12.3" height="49.5"/>
	<rect x="394.6" y="68.3" class="st3" width="12.3" height="4.6"/>
	<rect x="394.6" y="38.8" class="st3" width="12.3" height="4.6"/>
	<rect x="394.6" y="46.6" class="st3" width="12.3" height="1.8"/>
	<polygon class="st2" points="557.2,55.1 555.9,58.6 555.1,60.7 553.7,64.3 548.5,78.1 520.3,78.1 515.1,64.3 513.7,60.7 
		512.9,58.6 511.6,55.1 522,39.9 516.6,29.8 552.2,29.8 546.8,39.9 	"/>
	<polygon class="st4" points="557.2,55.1 555.9,58.6 512.9,58.6 511.6,55.1 	"/>
	<polygon class="st4" points="555.1,60.7 553.7,64.3 515.1,64.3 513.7,60.7 	"/>
</g>
<g id="freepik--Table--inject-198">
	<polygon class="st5" points="6.8,347.5 86.6,347.3 166.3,347.2 325.9,347 485.5,347.2 565.2,347.3 645,347.5 565.2,347.8 
		485.5,347.9 325.9,348 166.3,347.9 86.6,347.8 	"/>
</g>
<g id="freepik--character-2--inject-198">
	<polygon class="st2" points="317.2,347.5 439.9,347.5 415.4,205.3 323.7,205.3 	"/>
	<polygon class="st4" points="317.2,347.5 328,347.5 334,205.3 323.7,205.3 	"/>
	<path class="st6" d="M423.8,233.2c13.9,31,47.4,82.4,62.4,69.7c22.4-19.1,37.6-61.2,43.6-78.3c3.4-9.5-45.3-25.5-48.3-16.9
		c-4.2,12.3-10.9,38.1-14.7,41.7c-2,1.9-17.9-20.5-30-31.1C419.5,203.2,419.4,223.3,423.8,233.2z"/>
	<path class="st6" d="M542,210.3c-4.3,9.7-21,26.2-26.5,28.6c-5.5,2.4-34.8-24-34.2-30.2c0.6-6.2,18.1-38.8,27.7-43.8
		C518.6,159.9,546.4,200.2,542,210.3z"/>
	<path class="st6" d="M483.6,201.9c0,0,0.7-13.9-2.8-25.6c-2.9-9.9-8.4-24.1-3.2-25.9c10.8-3.6,24.4,32,24.4,32s3.5,16.7-6.8,21.3
		C488.6,206.5,483.6,201.9,483.6,201.9z"/>
	<path class="st6" d="M495.6,175.6c0.7,5.6,6.9,1.6,6.9,1.6s-7.5,8-4.6,13.5c2.9,5.3,10.2,0.1,10.7-0.2c-0.4,0.4-7.1,7.9-3.6,13.1
		c3.7,5.4,10.2-1,10.6-1.4c-0.3,0.5-3.4,7.4,0.2,10.8c6.2,5.8,14.7-11.7,21.3-13.6c0,0,4.6,10.7,4.8,11c0,0,8.5-16.4,5.3-25.1
		c-0.9-2.6-3.5-4.3-6.3-3.9c0,0,3.3-5,0.7-9.2c-1.4-2.1-6-1.9-6-1.9s2.5-4.1-0.1-7.7c-2.1-2.9-6.4-2.1-6.4-2.1s0.5-5.1-2.5-7.3
		C520.4,148.5,494.1,163.6,495.6,175.6z"/>
	<path class="st5" d="M528.4,160.3C528.5,160.2,528.4,160.1,528.4,160.3c-9.9,2.8-19.8,8.9-26.2,17.1c-0.2,0.3,0.1,0.7,0.4,0.5
		C510.8,170.7,518.6,165,528.4,160.3z"/>
	<path class="st5" d="M535.7,170c0.1-0.1,0-0.2-0.1-0.2c-10.2,3-21.2,10.3-27.4,20.5c-0.2,0.4,0,0.9,0.2,0.5
		C513.1,184.3,526.9,174.2,535.7,170z"/>
	<path class="st5" d="M515.5,203c6.3-9.6,15.1-16.2,25.1-21.7c0.1-0.1,0-0.2-0.1-0.2c-5.6,1.4-11.6,5.5-16,9.1
		c-4.1,3.3-7.4,7.6-9.3,12.5C515.1,203,515.4,203.2,515.5,203z"/>
	<path class="st5" d="M502.3,177.2c-0.3,0.3,0.5,0.3,0.3,0.7c-1,1.4-6.3,10.2-3.9,13c2,2.2,6.3,1.1,7.8,0l3.8-2.7l-2.6,3.9
		c-1.2,1.7-2,3.6-2.6,5.6c-0.6,1.8-0.4,3.8,0.5,5.5c0.9,1.6,2.8,2.3,4.5,1.8c1.9-0.6,3.6-1.8,4.9-3.3l3.8-4l-2.3,5
		c-0.6,1.4-1.1,2.8-1.4,4.3c-0.3,1.4-0.2,2.9,0.3,4.2c0.5,1.2,1.7,2,3,2.1c1.5-0.1,2.8-0.7,4-1.6c2.5-1.9,4.9-4.1,7.1-6.4
		c1.2-1.1,2.3-2.3,3.5-3.3c1.1-1.1,2.5-2,4-2.6c-1.4,0.7-2.7,1.7-3.7,2.9c-1.1,1.1-2.2,2.4-3.2,3.6c-2.1,2.5-4.4,4.8-6.9,6.9
		c-1.3,1.1-3,1.9-4.7,2.1c-2,0-3.8-1.1-4.6-2.9c-0.7-1.6-0.9-3.5-0.5-5.2c0.3-1.7,0.8-3.3,1.5-4.9l1.5,1c-1.5,1.8-3.5,3.1-5.7,3.9
		c-1.2,0.4-2.6,0.3-3.8-0.1c-1.2-0.5-2.2-1.4-2.8-2.4c-1.2-2.1-1.4-4.7-0.6-7c0.6-2.2,1.6-4.2,3-6.1l1.2,1.1
		c-2,1.3-6.6,3.1-10.1,0.1C493.4,187.5,500.9,178.7,502.3,177.2z"/>
	<path class="st5" d="M502.6,177.2c-1.1,0.4-2.2,0.7-3.4,0.8c-0.9,0.1-1.9-0.3-2.4-1.1c-0.5-0.9-0.7-2-0.5-3
		c0.1-1.1,0.2-2.3,0.4-3.6c-0.8,1-1.3,2.2-1.6,3.4c-0.4,1.3-0.2,2.8,0.5,4c0.4,0.6,1.1,1.1,1.8,1.4c0.7,0.2,1.4,0.3,2.1,0.1
		C500.6,178.8,501.7,178.1,502.6,177.2z"/>
	<path class="st7" d="M478.7,208.7l50.6,35.3c0,0-30.3,62.7-48.9,62.5s-45.7-47.1-55-67.4s-3.8-37.5,15.1-19s25.6,26.1,26.2,25.9
		C467.8,245.5,478.7,208.7,478.7,208.7z"/>
	<path class="st7" d="M529.2,244c0,0-21,43.5-38.8,57.9c-3.6,2.9-7,4.6-10.2,4.6c-18.7-0.2-45.7-47.1-55-67.4
		c-5.8-12.6-5.8-23.9-0.6-26.4c3.3-1.5,8.5,0.4,15.7,7.4c19,18.6,25.6,26.1,26.2,25.8c1.2-0.5,12.1-37.2,12.1-37.2L529.2,244z"/>
	<path class="st1" d="M497.9,294.5c-0.6,0.7-1.3,1.4-1.9,2.1c-5.7,3.6-12.1,5.9-18.8,6.9c-1.8,0.2-3.7,0.3-5.5,0.2l-1.2-0.7
		c2.2,0.1,4.4,0.1,6.6-0.2c2.6-0.3,5.2-0.9,7.7-1.8l1.9-0.6l1.8-0.8c0.6-0.3,1.2-0.5,1.8-0.8l1.8-0.9
		C494.2,296.9,496.1,295.8,497.9,294.5z M459.6,239.3c-5.8,2.6-11,6.3-15.6,10.7c-2.9,2.9-5.6,6-8.1,9.3c0.1,0.2,0.3,0.5,0.4,0.7
		c2.5-3.4,5.2-6.5,8.2-9.4c3.8-3.7,8.1-6.9,12.8-9.3l1.8-0.9c0.3-0.2,0.7-0.3,1-0.4L459.6,239.3z M503.2,242.5
		c-4.8-2.4-9.8-4.2-15-5.6c-0.5-0.1-1.1-0.3-1.6-0.4c-0.3-0.1-0.7-0.2-1.1-0.2c-4.4-0.9-8.9-1.1-13.3-0.7c-0.7,0.1-1.3,0.2-1.9,0.3
		c-0.1,0.2-0.2,0.5-0.2,0.7c0.7-0.1,1.5-0.2,2.2-0.3c4.1-0.4,8.3-0.3,12.4,0.5l1.1,0.2c0.8,0.2,1.5,0.3,2.3,0.5
		c5.1,1.3,10.1,3.2,14.9,5.5c7.1,3.5,14.1,7.4,20.7,11.8c0.1-0.2,0.2-0.3,0.3-0.5C517.3,249.9,510.3,246,503.2,242.5z M508.5,229.5
		c-8.1,0.3-16,2.7-23,6.8l-0.9,0.5c-1.8,1.1-3.5,2.2-5.1,3.5c-8.6,6.5-15.4,14.9-21.9,23.3c-3.3,4.2-6.5,8.5-9.8,12.6
		c-0.2,0.3-0.5,0.6-0.7,0.9l0.4,0.5c0.3-0.3,0.6-0.7,0.9-1c3.4-4.1,6.6-8.4,9.9-12.6c6.5-8.4,13.3-16.7,21.8-23.1
		c1.8-1.4,3.8-2.7,5.8-3.9c0.3-0.2,0.5-0.3,0.8-0.5c2.3-1.3,4.8-2.4,7.3-3.4l1.9-0.7c0.6-0.2,1.3-0.4,1.9-0.6l1.9-0.5l2-0.4
		c2.6-0.6,5.2-0.9,7.9-0.8h0.1L508.5,229.5z M446.4,226.1c-3.5,1.6-7.1,2.7-10.9,3.5l-2,0.4c-0.6,0.1-1.3,0.2-2,0.3l-2,0.2l-2,0.1
		c-1.8,0.1-3.7,0.1-5.5-0.1l0.2,0.7c8.5,0.6,16.9-0.9,24.6-4.4C446.8,226.4,446.6,226.2,446.4,226.1L446.4,226.1z M432,213.6
		c-3.5,2.4-7.2,4.6-11,6.6c0,0.3,0,0.5,0,0.8c4-2.1,7.9-4.5,11.7-7.1C432.4,213.9,432.2,213.7,432,213.6L432,213.6z"/>
	<path class="st5" d="M517.3,249.9c-1.3-1.1-2.7-2.2-4-3.3c-2.8-2.2-5.5-4.4-8.3-6.5c-5.5-4.3-11.1-8.4-16.8-12.5
		c-3.2-2.3-6.4-4.8-9.7-6.9c-0.1,0-0.2,0-0.2,0c0,0.1,0,0.2,0,0.2c2.6,2.3,5.5,4.4,8.2,6.6c2.7,2.2,5.4,4.4,8.2,6.6
		c5.5,4.3,11.1,8.5,16.7,12.6c1.6,1.2,3.1,2.4,4.8,3.5c0.8,0.6,1.6,1.2,2.5,1.7s1.7,1,2.6,1.6h0.1v-0.1
		C519.9,252.3,518.6,251,517.3,249.9z"/>
	<path class="st5" d="M467.1,244.8c-1.9,5.2-3.5,10.6-4.8,16c-0.7,2.7-1.2,5.4-1.7,8.1s-0.9,5.4-1.1,8.1c0,0.1,0.1,0.1,0.2,0
		c0.8-2.6,1.5-5.3,2.1-8s1.3-5.4,1.9-8c1.2-5.4,2.6-10.7,3.7-16.1c0-0.1,0-0.2-0.1-0.2S467.1,244.8,467.1,244.8z"/>
	<path class="st8" d="M490.4,301.9c-3.6,2.9-7,4.6-10.2,4.6c-18.7-0.2-45.7-47.1-55-67.4c-5.8-12.6-5.8-23.9-0.6-26.4L490.4,301.9z"
		/>
	<path class="st7" d="M461.5,347.5H340c-1.3-2.5,18.6-108.9,59.6-138.9c9.1-6.6,25.2-2.4,29.7,4.1
		C451.8,245.3,461.5,347.5,461.5,347.5z"/>
	<path class="st1" d="M455.2,300.3c-3-1.1-6-2.3-8.9-3.7c-4.1-2-8-4.1-11.9-6.4l-0.6-0.3c-4-2.4-8-4.9-11.9-7.4l-0.6-0.4l-2.7-1.7
		c-9-5.8-17.9-11.7-27.5-16.3c-4.8-2.4-9.8-4.1-15-5.2c-2.6-0.5-5.3-0.6-7.9-0.4c-0.7,0-1.3,0.1-2,0.2c-0.5,0.1-0.9,0.1-1.4,0.2
		c0.1-0.2,0.1-0.3,0.2-0.5c0.4-0.1,0.7-0.1,1.1-0.2c0.7-0.1,1.3-0.2,2-0.2c2.7-0.2,5.4,0,8,0.4c5.3,1,10.4,2.8,15.2,5.2
		c9.7,4.6,18.6,10.6,27.6,16.3l2.6,1.7l0.6,0.4c4,2.6,8,5.1,12.1,7.5l0.6,0.3c3.8,2.2,7.7,4.3,11.6,6.2c2.8,1.3,5.6,2.5,8.5,3.5
		L455.2,300.3z M444.4,249.6L444,250c-7.7,7.5-13.5,16.7-18.9,25.8c-1.1,2-2.3,3.9-3.5,5.9c-0.1,0.2-0.2,0.3-0.3,0.5
		c-1.5,2.5-3,5-4.5,7.4c-1.4,2.1-2.8,4.3-4.3,6.3c-0.1,0.2-0.3,0.4-0.4,0.6c-1.5,2.1-3.2,4-4.9,5.9c-1.8,1.9-3.8,3.7-6,5.2l-0.8,0.6
		c-0.3,0.2-0.6,0.3-0.9,0.5l-1.7,1c-1.2,0.6-2.4,1.1-3.6,1.5c-5,1.7-10.3,2.5-15.6,2.5s-10.6-0.6-15.7-1.8c-5-1.1-9.9-2.5-14.7-3.9
		c0,0.2-0.1,0.3-0.1,0.5c4.9,1.4,9.8,2.9,14.8,3.9c5.2,1.2,10.6,1.8,15.9,1.8c5.4,0,10.7-0.9,15.8-2.5c1.3-0.4,2.5-1,3.7-1.6l1.8-1
		c0.3-0.2,0.6-0.3,0.9-0.5l0.8-0.6c2.2-1.5,4.2-3.3,6.1-5.3s3.6-4.1,5.2-6.3c0.1-0.2,0.3-0.4,0.4-0.6c1.4-1.9,2.8-3.9,4-6
		c1.5-2.4,3-4.9,4.5-7.4l0.3-0.5l3.5-5.9c5.4-9.1,11.2-18.2,18.8-25.6l0.1-0.1C444.5,250.1,444.5,249.8,444.4,249.6z M450.2,273.3
		c-0.8,1-1.5,1.9-2.3,2.9c-3.3,4.2-7,8-11,11.5c-0.8,0.6-1.6,1.3-2.4,1.9L434,290c-1.2,0.8-2.4,1.6-3.6,2.2l-0.9,0.5
		c-0.3,0.2-0.6,0.3-0.9,0.4l-1.8,0.8c-1.2,0.4-2.5,0.8-3.8,1.1c-3.1,0.7-6.3,1-9.4,1h-0.8c-1.9,0-3.8-0.1-5.6-0.4
		c-5.3-0.7-10.5-1.9-15.5-3.7c-5-1.7-9.9-3.9-14.8-6c-4.9-2.2-9.9-4.1-15-5.7c-1.5-0.4-3-0.8-4.6-1.1l-0.1,0.4
		c1.6,0.3,3.1,0.7,4.6,1.1c5.1,1.6,10.1,3.5,14.9,5.7c4.9,2.1,9.8,4.3,14.9,6c5,1.8,10.3,3.1,15.6,3.8c1.8,0.2,3.5,0.3,5.3,0.4
		c0.3,0,0.5,0,0.8,0c3.4,0.1,6.7-0.3,10-0.9c1.3-0.3,2.6-0.7,3.9-1.1l1.9-0.8c0.3-0.1,0.6-0.3,0.9-0.4l0.9-0.5
		c1.4-0.7,2.7-1.5,3.9-2.4l0.5-0.4c0.8-0.5,1.5-1.1,2.3-1.7c4.1-3.5,7.8-7.3,11.2-11.5c0.7-0.8,1.3-1.6,2-2.5
		C450.3,273.9,450.2,273.6,450.2,273.3z M437.6,229.1c-0.7,0.2-1.4,0.3-2.1,0.5l-2,0.4c-0.6,0.1-1.3,0.2-2,0.3l-2,0.2l-2,0.1
		c-2.6,0.2-5.3,0-7.9-0.4c-4.1-0.7-8.1-2-11.8-3.9l-1-0.5c-0.7-0.4-1.4-0.7-2.1-1.1c-4.6-2.7-8.9-5.8-12.8-9.4l-0.4,0.4
		c4,3.6,8.3,6.8,12.9,9.5c0.5,0.3,1,0.5,1.5,0.8l1,0.5c4,2.1,8.2,3.5,12.6,4.3c6.1,0.9,12.3,0.5,18.3-1
		C437.8,229.5,437.7,229.3,437.6,229.1z M430.5,214.6c-5.3,3.6-11,6.6-16.9,9c-2.2,0.8-4.4,1.5-6.6,2.1l-0.9,0.2
		c-2.6,0.6-5.2,1-7.9,1.2l-2,0.1c-0.7,0-1.3,0-2,0h-2l-2-0.2c-2.4-0.1-4.8-0.5-7.1-1.2c-0.1,0.2-0.3,0.4-0.4,0.6
		c8,2,16.3,2,24.3-0.1l1-0.3c2-0.5,4-1.2,5.9-1.9c6-2.4,11.7-5.4,17-9L430.5,214.6z M460.4,337.1c-1,0-2.1,0.1-3.1,0.1h-0.1h-0.6
		c-5.1,0.5-10.1,2-14.7,4.4c-3.3,1.7-6.4,3.7-9.4,5.9h0.6c2.8-2.1,5.8-3.9,8.9-5.6c4.6-2.4,9.7-3.8,14.8-4.3h0.4h0.2
		c1,0,1.9-0.1,2.9-0.1C460.4,337.4,460.4,337.3,460.4,337.1z M460.9,341.8c-1.1-1.4-2.2-2.7-3.4-4.1c-0.1-0.1-0.2-0.3-0.4-0.4
		l-0.4-0.5c-3.5-4.1-7.5-7.7-12-10.7c-2.3-1.5-4.7-2.7-7.2-3.5c-0.6-0.2-1.3-0.4-1.9-0.6s-1.3-0.3-2-0.4c-1.3-0.3-2.7-0.3-4-0.4
		c-5.4-0.2-10.7,0.7-15.8,2.5c-5,1.9-9.8,4.4-14.3,7.3c-8,5.1-15.3,11.2-23.1,16.6h0.3c7.8-5.3,15-11.2,22.9-16.3
		c4.5-2.9,9.2-5.4,14.2-7.2c5-1.8,10.3-2.7,15.6-2.5c1.3,0.1,2.6,0.2,4,0.4c0.7,0.1,1.3,0.3,1.9,0.4s1.3,0.4,1.9,0.6
		c2.5,0.9,4.9,2,7.1,3.5c4.4,3,8.4,6.6,11.8,10.6c0.1,0.1,0.1,0.1,0.2,0.2l0.4,0.4c1.4,1.6,2.8,3.3,4.1,5
		C461,342.4,461,342.1,460.9,341.8L460.9,341.8z"/>
	<path class="st6" d="M383.4,221.7c-24.8,28.6-58.1,79.2-44.5,90.4c22.4,18.4,87.9,29,102.9,30.8c6.5,0.8,19.5-41.6,15.1-47.1
		s-73.5-9.4-74-13.6c-0.3-2.4,10.2-23.4,17-49.1C407.7,203.5,390.4,213.7,383.4,221.7z"/>
	<path class="st6" d="M445.6,292.3c0,0,19.9-0.1,32.8,0.4c7.3,0.3,19.6,1.9,24.9,4.5c7.8,4,38,25.5,32.9,32.9
		C531.6,336.8,508,315,508,315s25.7,19.9,18.7,27s-30.3-21-30.3-21s26,21,17.6,27.2c-6.3,4.6-28.9-19.7-28.9-19.7
		s22.2,18.2,15.9,23.3c-7,5.6-29.3-15.5-29.3-15.5c-18.2,10.2-31,7.6-40,4.6C429.6,340.2,445.6,292.3,445.6,292.3z"/>
	<path class="st5" d="M499.5,307.6c3.1,2.2,6.3,4.5,9.2,7c2.9,2.5,5.7,5.1,8.4,7.9c6.5,6.8,9.5,12,9.3,11.7
		c-5.2-7.2-15.5-16.3-18.4-18.8s-5.7-5.1-8.6-7.6C499.3,307.7,499.5,307.6,499.5,307.6z"/>
	<path class="st5" d="M490.3,317.9c3.8,3,7.8,5.9,11.5,9s8.7,7.8,12.2,11.2c0.3,0.3,0,0.8-0.3,0.5c-3.6-3.3-9-7.8-12.6-11
		S494,321.1,490.3,317.9C490.2,318,490.3,317.9,490.3,317.9z"/>
	<path class="st5" d="M480.9,325.4c6.1,4.3,11.4,9.7,16.5,15.2c0.3,0.3,0,0.3-0.3,0c-5.4-5.1-9.6-9.2-16.3-15
		C480.7,325.5,480.8,325.3,480.9,325.4z"/>
	<path class="st5" d="M442.8,291.7c9.1-0.1,35.7-0.1,44.7,0.6c8,0.6,14.6,2.3,21.3,6.8c14.4,9.5,23.7,20.7,26,24
		c1.4,2,3.4,5.2,1.6,7.5c-2.3,2.7-10.6,0.1-19.4-7.9c-0.3-0.3-0.1-0.5,0.2-0.2c12.4,10,17.3,8.9,18.6,7.1c0.8-1.1,0-3-0.7-4.5
		c-1.2-2.1-2.7-4.1-4.4-5.8c-5.7-6.1-12-11.6-18.8-16.4c-7.3-5.4-15.9-8.7-25-9.4c-9.3-0.8-34.9-0.5-44.1-1.4
		C442.6,292,442.6,291.7,442.8,291.7z"/>
	<path class="st5" d="M528.2,338.1c-0.5-2.5-2.3-4.7-3.7-6.8c-1.7-2.6-3.7-5-5.9-7.1c-0.1-0.1-0.3,0-0.2,0.1
		c1.9,2.2,3.6,4.5,5.2,6.9c0.8,1.3,1.6,2.7,2.3,4.1s1.4,2.9,1.1,4.5c-0.6,2.9-4.4,2.9-6.6,2.1c-1.4-0.5-2.8-1.2-4.1-2
		c-1.8-1.1-3.5-2.4-5.1-3.8c-0.1-0.1-0.5-0.1-0.3,0.1c3.3,3.1,9.5,9.7,14.7,7.3C527.6,342.4,528.7,340.2,528.2,338.1z"/>
	<path class="st7" d="M445.9,289.8l-23.8,54c0,0-83.1-18.8-88-34.5s21.2-58,44.7-84.4c23.1-25.9,26.5-8.3,20.8,11.7
		s-15.2,43.1-14.1,44.9C386.6,283.3,445.9,289.8,445.9,289.8z"/>
	<path class="st1" d="M390.9,263.4c-0.1,0.1-0.1,0.3-0.2,0.5c-4.6-2.3-9.5-3.9-14.6-4.9c-2.6-0.5-5.3-0.6-7.9-0.4
		c-0.7,0-1.3,0.1-2,0.2s-1.3,0.2-1.9,0.4c-1.3,0.3-2.5,0.8-3.8,1.2c-4.9,1.9-9.4,4.7-13.2,8.2l0.6-1.1c3.7-3.2,7.9-5.8,12.5-7.5
		c1.3-0.4,2.5-0.9,3.9-1.2c0.6-0.2,1.3-0.3,2-0.4s1.3-0.2,2-0.2c2.7-0.2,5.4,0,8,0.4C381.3,259.5,386.2,261.1,390.9,263.4z
		 M434.9,289.9l-0.6-0.3l-2.3-1.4l-1.4-0.2c1,0.6,2.1,1.3,3.1,1.9l0.6,0.3c3,1.8,6,3.4,9.1,5l0.2-0.5
		C440.7,293.2,437.8,291.5,434.9,289.9z M418.7,286.6c-0.6,1-1.2,2-1.8,3c-1.4,2.1-2.8,4.3-4.3,6.3c-0.1,0.2-0.3,0.4-0.4,0.6
		c-1.5,2.1-3.2,4-4.9,5.9c-1.8,1.9-3.8,3.7-6,5.2l-0.8,0.6c-0.3,0.2-0.6,0.3-0.9,0.5l-1.7,1c-1.2,0.6-2.4,1.1-3.6,1.5
		c-5,1.7-10.3,2.5-15.6,2.5s-10.6-0.6-15.7-1.8c-5.2-1.1-10.3-2.6-15.5-4.1c-4.5-1.3-9.1-2.6-13.8-3.5c0,0.2,0,0.3,0,0.5
		c4.6,0.9,9.2,2.2,13.7,3.5c5.1,1.5,10.3,3,15.5,4.1c5.2,1.2,10.6,1.8,15.9,1.8c5.4,0,10.7-0.9,15.8-2.5c1.3-0.4,2.5-1,3.7-1.6
		l1.8-1c0.3-0.2,0.6-0.3,0.9-0.5l0.8-0.6c2.2-1.5,4.2-3.3,6.1-5.3s3.6-4.1,5.2-6.3c0.1-0.2,0.3-0.4,0.4-0.6c1.4-1.9,2.8-3.9,4-6
		c0.7-1.1,1.3-2.1,2-3.2H418.7z M435.6,288.6c-0.4,0.3-0.8,0.6-1.3,0.9l-0.5,0.4c-1.2,0.8-2.4,1.6-3.6,2.2l-0.9,0.5
		c-0.3,0.2-0.6,0.3-0.9,0.4l-1.8,0.8c-1.2,0.4-2.5,0.8-3.8,1.1c-3.1,0.7-6.3,1-9.4,1h-0.8c-1.9,0-3.8-0.1-5.6-0.4
		c-5.3-0.7-10.5-1.9-15.5-3.7c-5-1.7-9.9-3.9-14.8-6c-4.9-2.2-9.9-4.1-15-5.7c-5.1-1.5-10.6-2.3-15.9-1.2c-1.7,0.3-3.3,0.9-4.9,1.7
		c-0.1,0.2-0.2,0.4-0.3,0.6c1.6-0.9,3.4-1.5,5.2-1.9c5.2-1,10.6-0.2,15.7,1.3c5.1,1.6,10.1,3.5,14.9,5.7c4.9,2.1,9.8,4.3,14.9,6
		c5.1,1.8,10.3,3.1,15.6,3.8c1.8,0.2,3.5,0.3,5.3,0.4c0.3,0,0.5,0,0.8,0c3.4,0.1,6.7-0.3,10-0.9c1.3-0.3,2.6-0.7,3.9-1.1l1.9-0.8
		c0.3-0.1,0.6-0.3,0.9-0.4l0.9-0.5c1.4-0.7,2.7-1.5,3.9-2.4l0.5-0.4c0.5-0.4,1-0.8,1.6-1.2L435.6,288.6z M392,215.1
		c-0.4-0.4-0.9-0.8-1.3-1.1l-0.5,0.4l1.4,1.3c3.3,2.9,6.7,5.6,10.4,8c0-0.3,0-0.5,0-0.7C398.5,220.5,395.2,217.9,392,215.1
		L392,215.1z M398.1,227.1l-2,0.1c-0.7,0-1.3,0-2,0h-2l-2-0.2c-2.6-0.2-5.3-0.6-7.8-1.4c-1.1-0.3-2.2-0.7-3.3-1.1l-0.2,0.3l-0.2,0.3
		c1.2,0.5,2.4,0.9,3.6,1.3c6.3,1.7,12.9,2.1,19.4,1.1c0-0.3,0.1-0.5,0.1-0.7C400.6,226.9,399.4,227.1,398.1,227.1L398.1,227.1z
		 M429.7,321.2c-5.4-0.2-10.7,0.7-15.8,2.5c-5,1.9-9.8,4.4-14.3,7.3c-2.5,1.6-4.9,3.3-7.4,5.1l0.4,0.1l0,0c2.3-1.7,4.7-3.3,7.1-4.9
		c4.5-2.9,9.2-5.4,14.2-7.2c5-1.8,10.3-2.7,15.6-2.5c0.7,0.1,1.4,0.1,2.1,0.2l0.2-0.4C431.2,321.3,430.4,321.3,429.7,321.2
		L429.7,321.2z"/>
	<path class="st5" d="M412.6,334.8c0.8-1.5,1.6-3.1,2.4-4.6c1.6-3.1,3.1-6.3,4.7-9.4c3.1-6.3,6-12.6,8.8-19
		c1.6-3.6,3.4-7.2,4.8-10.9c0-0.1,0-0.2-0.1-0.2s-0.2,0-0.2,0.1l0,0c-1.7,3-3.2,6.2-4.8,9.4c-1.6,3.2-3.2,6.2-4.8,9.4
		c-3.1,6.3-6,12.6-8.9,18.9c-0.8,1.8-1.7,3.5-2.4,5.4c-0.4,0.9-0.8,1.8-1.2,2.8c-0.4,1-0.6,1.9-1,2.8v0.1h0.1l0,0
		C410.8,337.9,411.7,336.4,412.6,334.8z"/>
	<path class="st5" d="M423.9,340.1l-1.7,3.8v0.1H422c-7.9-1.5-15.7-3.2-23.5-5.2s-15.5-4.2-23.1-6.6c-7.7-2.4-15.2-5.3-22.5-8.6
		c-3.7-1.7-7.2-3.6-10.6-5.7c-1.7-1.1-3.3-2.3-4.8-3.7c-1.5-1.3-2.7-3-3.4-4.9c0.9,1.8,2.2,3.3,3.8,4.5c1.6,1.2,3.3,2.3,5,3.2
		c3.5,1.9,7.1,3.7,10.7,5.1c7.4,3,14.9,5.6,22.5,8.1s15.3,4.7,22.9,6.9c7.6,2.2,15.4,4.3,23.1,6.4l-0.2,0.1L423.9,340.1z"/>
	<path class="st5" d="M444.9,291.9l0.8-2.1l0.1,0.1c-8.3-0.5-16.7-1.2-25-2.1s-16.6-1.8-24.9-3.1c-2.1-0.3-4.1-0.7-6.2-1.1
		c-1-0.2-2.1-0.4-3.1-0.7c-0.3-0.1-0.5-0.2-0.8-0.3c-0.2-0.1-0.3-0.1-0.5-0.2c-0.1-0.1-0.2-0.1-0.3-0.2c-0.1-0.1-0.2-0.2-0.3-0.3
		c0-0.1-0.1-0.2-0.1-0.2v-0.1c0-0.4,0-0.8,0.1-1.1c0-0.3,0.1-0.6,0.2-0.8c1.1-4.1,2.4-8.1,3.8-12c2.7-7.9,5.7-15.7,8.8-23.5
		c-2.4,8-4.9,16-7.3,24c-1.2,4-2.5,8-3.4,12c-0.1,0.3-0.1,0.5-0.1,0.7s0,0.5,0,0.4s0,0,0,0c0-0.1,0-0.1-0.1-0.1
		c0-0.1-0.2-0.2-0.1-0.2s0,0,0,0l0.3,0.1l0.7,0.2c1,0.3,2,0.5,3,0.6c2,0.4,4.1,0.7,6.1,1c4.1,0.6,8.2,1.2,12.4,1.8l12.4,1.7
		c8.3,1.1,16.5,2.3,24.8,3.5h0.1l-0.1,0.1L444.9,291.9z"/>
	<path class="st5" d="M398.3,249.3c-0.6,1.4-1.3,2.8-2.2,4c-0.8,1.3-1.8,2.4-3,3.4c0.8-1.3,1.6-2.6,2.4-3.8
		C396.4,251.6,397.3,250.4,398.3,249.3z"/>
	<path class="st6" d="M422.5,230.8c-7.1,2-19.8-8.3-25-16.9c-0.4-0.6,1.1-24.9,0.8-29.8c0-1,30.7,6,30.7,6s-2.5,10.3-2.1,18.8
		C427,209.6,429.3,228.9,422.5,230.8z"/>
	<path class="st5" d="M397.9,199.3c14.4,10.2,28.4,6.3,29,6.1c0.2-5.2,0.9-10.3,2.1-15.3c0,0-30.8-7-30.8-6
		C398.5,186.4,398.2,192.9,397.9,199.3z"/>
	<path class="st9" d="M429,170.1c0.8,7.2,6.5,12.4,12.8,11.7s10.8-7.1,10-14.2c-0.8-7.1-6.5-12.4-12.8-11.7S428.2,162.9,429,170.1z"
		/>
	<path class="st3" d="M425.3,170.9c0.9,8,7.3,13.8,14.3,13.1s12-7.9,11.1-15.9s-7.3-13.8-14.3-13.1S424.4,162.9,425.3,170.9z"/>
	<path class="st6" d="M394.1,147.6c-3.4,10.8,2.1,42,9.8,49c11.1,10.1,29.3,11.2,37.9-2.1c8.4-12.9,0.5-53.5-8.1-59.8
		C421.2,125.2,399.1,131.6,394.1,147.6z"/>
	<path class="st5" d="M420,167.1c0-0.1-0.1,0.1-0.1,0.2c0.5,2.1,0.6,4.6-1.1,5.6c-0.1,0,0,0.1,0,0.1
		C421.1,172.3,420.8,169.1,420,167.1z"/>
	<path class="st5" d="M417.8,165.3c-3.4,0.4-2.4,7.2,0.8,6.9C421.8,171.9,420.6,165,417.8,165.3z"/>
	<path class="st5" d="M432.2,165.5c0-0.1,0.2,0.1,0.2,0.2c0.3,2.1,0.9,4.5,2.9,4.9c0.1,0,0.1,0.1,0,0.1
		C432.9,170.7,432.1,167.6,432.2,165.5z"/>
	<path class="st5" d="M433.7,163c3.4-0.8,4.6,6,1.5,6.7S430.9,163.7,433.7,163z"/>
	<path class="st5" d="M414.6,162.6c0.9-0.4,1.7-0.8,2.5-1.3c0.9-0.3,1.7-1,2.3-1.8c0.2-0.6,0-1.3-0.5-1.7c-1.2-0.6-2.6-0.5-3.6,0.2
		c-1.2,0.5-2.2,1.5-2.7,2.7c-0.3,0.8,0.1,1.7,0.9,2C413.8,162.8,414.2,162.8,414.6,162.6z"/>
	<path class="st5" d="M435.9,159.2c-0.9,0-1.9-0.1-2.8-0.3c-1,0-2-0.3-2.8-0.8c-0.5-0.5-0.5-1.2-0.2-1.8c0.9-1,2.2-1.5,3.5-1.2
		c1.3,0.1,2.6,0.6,3.5,1.5c0.6,0.6,0.5,1.6-0.1,2.2C436.7,159,436.3,159.2,435.9,159.2z"/>
	<path class="st5" d="M421.2,186.9c0.6,0.4,1.2,1,2,1c0.8-0.1,1.5-0.4,2.2-0.9h0.1v0.1c-0.5,0.9-1.5,1.5-2.5,1.6
		c-0.9-0.1-1.7-0.7-1.9-1.6C421,187,421.1,186.9,421.2,186.9z"/>
	<path class="st5" d="M422.5,180.3c1.3,1.5,3.3,2.4,5.3,2.5c0.9,0,1.8-0.1,2.6-0.3c0.2,0,0.3-0.1,0.5-0.1s0.3-0.1,0.5-0.1
		c0.2-0.1,0.4-0.3,0.4-0.5l0,0c0-0.1,0-0.1,0-0.2l0,0v-0.2c-0.2-1.6-0.7-4.1-0.7-4.1c0.6,0.2,3.9,1.1,3.7,0.3
		c-1.5-7-3.1-14.7-6.1-21.3c0-0.1-0.2-0.1-0.3-0.1c-0.1,0-0.1,0.1-0.1,0.2c1.2,6.8,3.5,13.3,4.8,20c-1.2-0.3-2.3-0.5-3.5-0.5
		c-0.2,0.1,1.1,4.7,1.1,5.4v0.1c-2.7,0.8-4.9,0.3-7.8-1.2C422.5,180,422.3,180.1,422.5,180.3z"/>
	<path class="st5" d="M429.3,181.8c-0.7,1.3-1.7,2.4-3,3.2c-0.7,0.4-1.5,0.6-2.3,0.5c-1.8-0.2-2-1.7-1.9-3.1
		c0.1-0.7,0.2-1.4,0.5-2.1C424.5,181.5,426.9,182,429.3,181.8z"/>
	<path class="st10" d="M426.3,185c-0.7,0.4-1.5,0.6-2.3,0.5c-1.8-0.2-2-1.7-1.9-3.1C423.9,182.3,425.8,183.2,426.3,185z"/>
	<path class="st11" d="M399.2,158.6c-1.2,3.1-3.8,10.4-5.2,10.9c-1.4-10.1-1.4-19.3,1.1-24.9c1-2.3,2.5-4.4,4.3-6.3
		C399.6,141.1,400.5,155.4,399.2,158.6z"/>
	<path class="st5" d="M426.3,144.2c-1.7,3-4.9,4.9-8.4,5s-6.9-1.7-8.8-4.6c0,0-0.1-0.1-0.1,0c0,0-0.1,0.1,0,0.1
		c1.8,3.3,5.2,5.4,9,5.4c3.7-0.2,7-2.4,8.6-5.6c0-0.1,0-0.2,0-0.2C426.4,144.1,426.3,144.1,426.3,144.2z"/>
	<path class="st5" d="M447.1,128.1c-1.4-2.7-3.8-4.7-6.6-5.8c-3.9-1.5-7.8-0.5-11.7,0.6c0,0-0.1,0-0.1,0.1s0,0.1,0.1,0.1
		c3.3-0.9,6.7-1.7,10-0.7c2.8,0.8,5.2,2.6,6.8,5c3.3,5.1,2.3,11.9-2.3,15.9c-2.7,2.2-6.1,3.2-9.5,2.7c-0.1,0-0.2,0.2,0,0.2
		c6.8,1.2,13.3-3.4,14.4-10.3C448.8,133.3,448.3,130.5,447.1,128.1L447.1,128.1z"/>
	<path class="st5" d="M393.2,153.8c0,0-7.2-9.3-3.7-16c2-3.8,10.6-4.9,10.6-4.9s2-4.4,8.8-7.3c6.8-2.9,16-1.2,16-1.2
		s6.1-5.1,13.1-2.6c9.8,3.5,11,17.2,2.8,23.1c-5.7,4.1-15.2,0.1-15.2,0.1c-0.8,0.3-8.3,6.8-15.9,0.4c0,0-4.4,5.5-9.5,3.1
		C399.1,151.6,396.4,153.7,393.2,153.8z"/>
	<path class="st6" d="M400.6,173c0,0-7.2-10-11.7-7.4s1,17.1,6.4,19c2.8,1.2,6,0,7.2-2.8c0-0.1,0.1-0.1,0.1-0.2L400.6,173z"/>
	<path class="st5" d="M390.6,169.7C390.5,169.7,390.5,169.8,390.6,169.7c3.8,1.6,5.8,5,7.3,8.6c-1.1-1.4-2.7-2.1-4.5-0.8
		c-0.1,0.1,0,0.2,0.1,0.2c1.3-0.4,2.8,0,3.7,1.2c0.7,0.9,1.3,1.9,1.8,3c0.2,0.3,0.8,0.1,0.6-0.2v-0.1
		C399.6,176.8,395.7,170.1,390.6,169.7z"/>
	<path class="st3" d="M394.6,166c0,0-3.9-15.5-0.9-25c3.4-10.6,16.1-20.9,31.1-16.5c0,0-16.7,2.1-24.8,16.1
		c-3.7,6.4-0.1,24.9-0.1,24.9L394.6,166z"/>
	<path class="st3" d="M410.8,171.2c1.5,8-2.9,15.5-9.9,16.9s-13.9-4-15.5-12s2.9-15.5,9.9-16.9S409.2,163.2,410.8,171.2z"/>
	<path class="st9" d="M407,171.5c1.4,7.2-2.6,14-8.9,15.2s-12.5-3.6-13.9-10.8s2.6-14,8.9-15.2S405.6,164.3,407,171.5z"/>
</g>
<g id="freepik--character-1--inject-198">
	<polygon class="st2" points="10.3,347.5 133,347.5 108.5,205.3 16.8,205.3 	"/>
	<polygon class="st4" points="10.3,347.5 21.1,347.5 27.1,205.3 16.8,205.3 	"/>
	<path class="st5" d="M83,143.3c-11.4,11.3-14.7,30-14.7,30s-10.9,18.8-7.9,29c1.6,5.9,6.1,10.6,11.8,12.6l-1.1-5.6
		c0,0,3.7,7.2,15.9,10.2s28.4-0.8,36.8-5.1c5-2.5,9.2-6.2,12.4-10.9l-3.1,8.2c0,0,11.9-0.4,18.9-13.1c7-12.7-13.2-30.8-14.9-34.7
		s-3.9-32.4-33.9-27.5C103.3,136.3,90.9,135.5,83,143.3z"/>
	<path class="st5" d="M68,214c-3.1-2.3-6.2-5-7.9-8.3c-1.9-3.4-2.5-7.4-1.9-11.2c0.8-4.6,3.3-8.7,5.6-12.6c2.3-3.9,5.2-8,7.6-12.2
		c0.1-0.2-0.2-0.4-0.4-0.2c-2.7,3.1-5.1,6.4-7.4,9.8c-2.3,3.1-4.3,6.5-5.9,10.1c-1.5,3.3-1.9,6.9-1.4,10.5c0.6,2.9,1.9,5.6,3.7,7.9
		c2.2,2.8,5,4.5,7.8,6.6C68,214.4,68.2,214.2,68,214z"/>
	<path class="st5" d="M154.6,185.5c-3.6-10.5-13-17.1-18.8-26.3c-3.1-4.9-5.5-10.4-9.6-14.7c-0.1-0.1-0.3,0.1-0.2,0.2
		c3.3,3.9,5.2,8.5,7.6,13c2.6,4.4,5.5,8.5,8.9,12.3c5.9,7.1,13.1,15.6,11.7,25.5c-0.6,4.6-3.4,9.7-8.1,11.1
		c-0.2,0.1-0.1,0.4,0.1,0.3c3.8-1.5,6.7-4.5,8.2-8.3C156.2,194.4,156.2,189.7,154.6,185.5z"/>
	<path class="st5" d="M155.1,188.3c0.3-4-0.6-7.9-2.6-11.4c-2.1-3.4-5.3-5.8-8.6-8c-3.8-2.5-7.7-4.9-10.1-8.8
		c-0.1-0.2-0.3,0-0.3,0.2c3.8,6.5,11,9.6,15.8,15.1c5.6,6.3,5.6,15.4,1.7,22.6c-2.4,4.4-5.9,8.1-10,10.9c-0.1,0,0,0.1,0.1,0.1
		C148.3,204.3,154.5,197.1,155.1,188.3z"/>
	<path class="st6" d="M109.7,236.1c30.4,16.7,66.7,37.6,88.9,32.6c9.9-2.2,54.2-60.3,56.1-67c1.6-5.8-38.5-29-43-24.4
		c-7.6,7.6-28,50.6-31,51.3s-28.5-4.5-55-9.2C100.2,214.8,88.7,224.5,109.7,236.1z"/>
	<path class="st6" d="M250.3,209c3.5-4.4,17.6-25.7,20.2-32.6c2.6-6.9,8.6-27,3.6-29.5s-7.2,3.2-7.2,3.2s1.2-8.9-4.1-11
		c-5.3-2.1-8.5,7-8.5,7s0.6-9.3-4.9-11s-7.1,8-7.1,8s0.9-8.4-4.1-8c-6.1,0.6-6,16.4-9.4,23.7c-0.8,1.7-18.2,32.6-18.2,32.6
		L250.3,209z"/>
	<path class="st5" d="M242.5,142.3c0,11.6-2,16.7-8,26.3c-0.1,0.2,0.1,0.4,0.3,0.2c6.8-8.9,10.2-14.9,8.3-26.6
		C242.9,141.7,242.5,141.8,242.5,142.3z"/>
	<path class="st5" d="M254.3,145.2c-1,12-3.1,17.6-8.8,28.1c-0.1,0.1,0.2,0.3,0.3,0.1c6.4-9.9,9.6-16,9.1-28.1
		C254.9,144.8,254.3,144.6,254.3,145.2z"/>
	<path class="st5" d="M266.6,150.6c-1.8,11.6-3.9,17.7-10.6,27.3c-0.1,0.1-0.1,0.2,0,0.3s0.2,0.1,0.3,0l0,0
		c7.9-9.1,10.5-16.8,10.7-27.5C266.9,150,266.7,149.9,266.6,150.6z"/>
	<path class="st6" d="M202,194.9c0,0-0.9-14.5,0.2-20.9c1.1-6.4,13.7-29.1,18.7-26.6c6.5,3.2,1.8,17.7-1.5,24.5
		c0,0,15.1,7.3,13.9,18.5C232.1,201.6,202,194.9,202,194.9z"/>
	<path class="st5" d="M222.4,148.8c3.8,7.2-1,15.8-3.7,22.7c-0.1,0.3,0,0.7,0.3,0.9c0.1,0,0.1,0.1,0.2,0.1
		c6.1,3.5,13.7,10.2,14.4,17.6c0,0.1,0.1,0.2,0.2,0.2c0.1,0,0.2-0.1,0.2-0.2c0.4-8-6.5-15.2-13.5-18.6
		C223.3,164.5,227.8,155.6,222.4,148.8C222.5,148.7,222.4,148.7,222.4,148.8z"/>
	<path class="st7" d="M173.4,226.3L137,256.9c0,0-22.3-11.6-38.8-24.9s1.8-19.8,30.1-15.1S173.4,226.3,173.4,226.3z"/>
	<path class="st1" d="M130.3,232.4c-1-1.4-2.2-2.7-3.6-3.8c1.5,3.2,3.6,6,6.3,8.3C132.2,235.3,131.3,233.8,130.3,232.4z M98.3,232
		l0.4,0.3c0.3-0.3,0.6-0.6,0.9-1C99.1,231.5,98.7,231.7,98.3,232L98.3,232z M159.4,232.2c-1.7-0.3-3.5-0.3-5.2-0.2
		c1.6,0.6,3.3,1,5.1,1.3c1.7,0.3,3.5,0.3,5.2,0.2C162.7,232.8,161.1,232.4,159.4,232.2L159.4,232.2z M147.2,220.3c0,0.7,0,1.3,0.1,2
		c0.2-0.6,0.5-1.2,0.6-1.8L147.2,220.3z"/>
	<path class="st5" d="M128.8,250.3c7.4-7.1,15.4-13.8,23.4-20.2c2.3-1.8,4.6-3.6,7-5.3c0.1,0,0.2,0,0.1,0.1
		c-3.8,3.5-7.7,6.8-11.6,10.2c-3.9,3.4-7.9,6.7-11.9,10c-2.3,1.8-4.5,3.7-6.8,5.5C128.9,250.5,128.7,250.4,128.8,250.3z"/>
	<path class="st5" d="M152.5,243.9l-15.5,13c0,0-22.3-11.6-38.8-24.9c-5.9-4.7-7.3-8.6-5.5-11.4L152.5,243.9z"/>
	<path class="st7" d="M145,347.4H28.6c0,0,25.3-97.7,48.7-125.2c0.5-0.6,1.1-1.2,1.6-1.8c0.1-0.1,0.2-0.2,0.3-0.3
		c1.8-1.9,3.9-3.6,6.3-4.8c0.4-0.2,0.8-0.4,1.3-0.6c9-4.1,18.5-0.7,25.4,5.2c2.2,1.9,26.9,34,29,46.2c1.9,10.8-5.4,22.4-5.4,22.4
		L145,347.4z"/>
	<path class="st5" d="M118.3,284.4c-5,0.5-9.9,1.3-14.7,2.5c-2.4,0.6-4.7,1.4-7.1,2.2c-1.2,0.4-2.3,0.8-3.5,1.1
		c-1.2,0.4-2.5,0.6-3.8,0.7c0,0-0.1,0-0.1,0.1c0,0,0,0.1,0.1,0.1c1.2,0.1,2.4,0,3.7-0.1c1.2-0.1,2.3-0.4,3.5-0.7
		c2.4-0.6,4.8-1.4,7.3-2c4.9-1.3,9.8-2.6,14.8-3.5c0.1,0,0.2-0.1,0.2-0.2C118.5,284.4,118.4,284.4,118.3,284.4L118.3,284.4z"/>
	<path class="st5" d="M130.6,288.7c-4.1-0.4-8.2-0.6-12.3-0.5c-2,0-4.1,0.2-6.1,0.4c-1,0.1-2,0.2-2.9,0.4c-0.9,0.2-2.1,0.4-3.2,0.6
		c-0.1,0-0.1,0.2,0,0.2c1-0.1,2.1,0,3.1,0l3.1-0.1c2-0.1,4.1-0.1,6.1-0.2c4.1-0.2,8.2-0.3,12.3-0.3
		C130.8,289,130.8,288.7,130.6,288.7z"/>
	<path class="st1" d="M66.2,245.3c-0.6-0.7-1.1-1.4-1.7-2l-0.4,0.9c0.4,0.6,0.8,1.2,1.3,1.8c1,1.4,2.2,2.7,3.6,3.8
		C68.2,248.2,67.3,246.7,66.2,245.3z M79.7,219.7c-0.2,1.6-0.2,3.1-0.1,4.7c0.6-1.6,1-3.3,1.3-5.1c0-0.3,0.1-0.5,0.1-0.8
		C80.6,218.9,80.1,219.3,79.7,219.7z M115.1,252.2c-0.6,1.6-1.1,3.3-1.3,5.1c-0.3,1.7-0.3,3.5-0.2,5.2c0.6-1.6,1.1-3.3,1.3-5.1
		C115.2,255.7,115.2,253.9,115.1,252.2z M92.8,308.5c-0.6,1.6-1,3.3-1.3,5.1c-0.3,1.7-0.3,3.5-0.2,5.2
		C92.6,315.5,93.1,312,92.8,308.5z M55,266c-0.6,1.6-1,3.4-1.3,5.1s-0.3,3.5-0.2,5.2c0.6-1.6,1-3.3,1.3-5.1
		C55.1,269.5,55.1,267.7,55,266z M86.3,258.9c-1.7-0.3-3.5-0.3-5.2-0.2c1.6,0.6,3.3,1,5.1,1.3c1.7,0.3,3.5,0.3,5.2,0.2
		C89.7,259.5,88,259.1,86.3,258.9L86.3,258.9z M128.2,306.9c-1.7-0.3-3.5-0.3-5.2-0.2c3.3,1.2,6.8,1.7,10.3,1.4
		C131.6,307.5,129.9,307.1,128.2,306.9L128.2,306.9z M50,302.3c-1.7-0.2-3.4-0.3-5.1-0.2h-0.1h0.1c1.6,0.6,3.3,1,5,1.2
		c1.7,0.3,3.5,0.3,5.2,0.2C53.4,302.9,51.7,302.5,50,302.3z M93.9,343.4c-1.7-0.3-3.5-0.3-5.2-0.2c3.3,1.2,6.8,1.7,10.3,1.4
		C97.3,344.1,95.6,343.7,93.9,343.4L93.9,343.4z M46.7,338.5c-1.7-0.3-3.5-0.3-5.2-0.2c1.6,0.6,3.3,1,5.1,1.3
		c1.7,0.3,3.5,0.3,5.2,0.2C50.1,339.1,48.4,338.7,46.7,338.5L46.7,338.5z M95.1,234c-1.4,1-2.7,2.3-3.8,3.6c1.6-0.7,3.1-1.6,4.5-2.7
		c1.4-1,2.7-2.3,3.8-3.6C97.9,232,96.4,232.9,95.1,234z M107.5,287.5c-1.4,1-2.7,2.2-3.8,3.6c1.6-0.7,3.1-1.6,4.5-2.7
		c1.4-1,2.7-2.2,3.8-3.6C110.4,285.6,108.9,286.5,107.5,287.5L107.5,287.5z M63.8,320.3c-1.4,1-2.7,2.2-3.8,3.6
		c1.6-0.7,3.1-1.6,4.5-2.7c1.4-1,2.7-2.2,3.8-3.6C66.7,318.3,65.2,319.2,63.8,320.3L63.8,320.3z M136.4,273.2
		c-1-1.4-2.2-2.7-3.6-3.8c1.5,3.2,3.6,6,6.3,8.3C138.4,276.1,137.5,274.6,136.4,273.2L136.4,273.2z M121.5,333.8
		c-1-1.4-2.2-2.7-3.6-3.8c0.7,1.6,1.6,3.1,2.7,4.5c1,1.4,2.2,2.7,3.6,3.8C123.5,336.6,122.6,335.1,121.5,333.8z M77.7,286.1
		c-1-1.4-2.2-2.7-3.6-3.8c0.7,1.6,1.6,3.1,2.7,4.5c1,1.4,2.2,2.7,3.6,3.8C79.6,289,78.7,287.5,77.7,286.1z"/>
	<path class="st6" d="M74.9,223.1c-22.4,18-79.7,89.6-66.8,106.1s98.9,9,123.8,1.2c7.4-2.3-12.8-49.4-20.8-51.6
		c-6.7-1.8-43.7,9.1-44.4,7c-0.8-2.4,9.2-15.8,21.8-44.8C103.1,207.5,84.8,215.1,74.9,223.1z"/>
	<path class="st6" d="M151.5,274.9c17.1,2,21.2,5.1,36.5-0.9c10.1-3.9,16.9,0.8,9.5,9.3c-12,13.9-34.6,16-42.7,14.4L151.5,274.9z"/>
	<path class="st6" d="M103.6,279.4c0,0,21.2-5.5,39.7-5.2c12.8,0.2,40.5,3.8,59.3,36.9c4.5,7.9,5.2,22.2-6.7,12
		c-8.5-7.2-11.7-14.4-17.4-17.7c0,0-1.2,18.4-9.2,22.5c-7,3.6-14.3,6.8-21.8,9.4c-0.8-1.3-1.5-2.6-2.1-3.9c0,0-7.9,3.2-20-1.2
		L103.6,279.4z"/>
	<path class="st6" d="M155.4,276.4c5,4.5,15.3,14.1,21,25c6.4,12.1,15.4,37,6.4,41.6c-6.6,3.4-10.8-5.9-10.8-5.9s1.6,11.1-5,12.9
		c-6,1.6-8.9-5.7-8.9-5.7s-0.2,6.9-6.3,7.3c-7.3,0.5-5.7-14-13.5-19.9C136.5,330.3,155.4,276.4,155.4,276.4z"/>
	<path class="st5" d="M162.5,306c4,5,10.1,18.6,9.6,30.9c0,0.3-0.2,0.4-0.3,0.2C169.9,326.4,166.8,316,162.5,306L162.5,306
		C162.4,306,162.4,306,162.5,306L162.5,306z"/>
	<path class="st5" d="M150.6,312.7c3,4.6,8.7,19,7.7,31.5c0,0.3-0.3,0.4-0.3,0.1c-1.3-10.8-3.9-21.3-7.6-31.5
		C150.4,312.7,150.5,312.7,150.6,312.7C150.5,312.7,150.5,312.7,150.6,312.7z"/>
	<path class="st5" d="M178.3,305.3c5,3,7.8,6.5,11.5,10.9c1.8,2.2,3.8,4.2,5.8,6.2c1.9,1.8,4.6,4.4,7.5,3.1c1.6-0.7,2-2.6,2.1-4.1
		c0.1-1.8-0.1-3.5-0.8-5.2c0-0.1,0.1-0.1,0.1,0c0.6,1.5,1,3,1.2,4.5s0,3-0.6,4.3c-1.6,2.8-5.2,2.2-7.4,0.8c-1.3-0.9-2.6-2-3.7-3.1
		c-1.1-1.1-2.2-2.2-3.2-3.4c-2.1-2.4-4.1-4.9-6.2-7.3c-2-2.3-4.2-4.5-6.5-6.5C178.1,305.4,178.2,305.2,178.3,305.3z"/>
	<path class="st5" d="M184.7,327.2c-0.6-3.4-4.8-18.2-6.5-21.8v-0.1h0.1c3.2,5.1,7.2,17.4,7.9,21.2c0.7,3.8,1.4,8.5,0.4,12.2
		c-1.5,5.6-5.5,5.7-6.9,5.6c-1.7-0.1-3.3-0.8-4.6-2c-1.4-1.5-2.5-3.3-3.3-5.2c0-0.1,0.1-0.2,0.1-0.1c1.4,2.7,4.1,5.8,7.2,6.1
		c1.4,0.2,2.9-0.1,4-1c1.2-1.1,1.9-2.7,2.1-4.3C185.7,334.3,185.5,330.7,184.7,327.2z"/>
	<path class="st5" d="M158.3,344.1c0.6,0.9,1.6,3.6,4.1,4.8c1.7,1,3.8,1,5.6,0.2c1.7-1,2.9-2.7,3.4-4.6c0.4-2.4,0.6-4.9,0.6-7.4
		c0-0.1,0.1-0.1,0.2,0c0.3,2.7,0.2,5.4-0.3,8c-0.5,2.1-1.8,3.9-3.6,5c-2,1.1-4.4,1-6.2-0.3c-0.9-0.6-3.6-3.5-4-5.7
		C158,344.1,158.3,344,158.3,344.1z"/>
	<path class="st5" d="M139,330.8c0.7,0.8,1.4,1.7,1.9,2.6c0.6,1,1.1,2,1.7,3c1.1,2,1.9,4.1,2.5,6.3c0.6,2.2,1.1,4.6,2.6,6.4
		c1.4,1.8,3.9,2.5,6.1,1.7c1.1-0.5,2.1-1.3,2.7-2.4c0.7-1.2,1.1-2.4,1.4-3.8v-0.1h0.1c0,0,0,0,0,0.1c-0.1,1.2-0.3,2.4-0.6,3.5
		c-0.4,1-1,2-1.9,2.7c-1.8,1.4-4.2,1.6-6.3,0.7c-2.2-1-3.5-3.3-4.3-5.5c-0.9-2.5-1.4-5.1-2.4-7.5c-0.5-1.3-1-2.6-1.6-3.9
		C140.3,333.3,139.4,332.1,139,330.8C138.8,330.8,138.9,330.7,139,330.8z"/>
	<path class="st5" d="M131.2,333.9c3.2,0.5,6.4,0.6,9.6,0.5c0.1,0,0.2,0.3,0.1,0.3c-1.6,0.3-3.2,0.4-4.8,0.4
		c-1.6-0.1-3.2-0.4-4.8-0.9C131.1,334,131.1,333.8,131.2,333.9z"/>
	<path class="st5" d="M33,296.5c5.3-2.6,10.9-4.8,16.5-6.6c5.6-1.8,11.3-3.1,17.1-4c3.3-0.5,6.6-0.9,10-1.4c0.1,0,0.1,0.1,0,0.1
		c-5.8,0.9-11.6,2.2-17.3,3.8c-5.7,1.5-11.3,3.2-16.9,4.9C39.2,294.3,36.1,295.4,33,296.5C33,296.8,32.9,296.6,33,296.5z"/>
	<path class="st7" d="M28.1,266.5l47.4,5.1c0,0,12.1-22,18.4-42.3s-11.6-16.3-32.4,3.3S28.1,266.5,28.1,266.5z"/>
	<path class="st7" d="M28.1,266.5l47.4,5.1c0,0,12.1-22,18.4-42.3s-11.6-16.3-32.4,3.3S28.1,266.5,28.1,266.5z"/>
	<path class="st1" d="M79.8,219L79.8,219c-0.3,1.8-0.3,3.6-0.2,5.3c0.6-1.6,1-3.3,1.3-5.1c0-0.3,0.1-0.6,0.1-0.9L79.8,219z M55,266
		c-0.4,1.1-0.8,2.2-1,3.4l1,0.1C55.1,268.3,55.1,267.2,55,266z M38.6,255.3L38.6,255.3l-0.5,0.5c0.5,0,1,0,1.6-0.1
		C39.3,255.6,38.9,255.4,38.6,255.3z M81.1,258.7c0.3,0.1,0.6,0.2,0.9,0.3c0.1-0.1,0.1-0.3,0.2-0.4
		C81.8,258.6,81.4,258.6,81.1,258.7L81.1,258.7z M66.2,245.3c-1-1.4-2.2-2.7-3.6-3.8c0.7,1.6,1.6,3.1,2.7,4.5c1,1.4,2.2,2.7,3.6,3.8
		C68.2,248.2,67.3,246.7,66.2,245.3L66.2,245.3z"/>
	<path class="st5" d="M73.6,271.2c0.3,0,2,0,2,0c0.2-0.6,4.3-10,5.3-12c2.1-4.1,4.4-8.1,6.6-12.1c0.1-0.1,0.3,0,0.2,0.1
		c-1.6,3.5-3.1,7-4.7,10.5c0.4-0.5,0.8-0.9,1.2-1.4c0.8-1,1.5-2,2.3-3.1c0.1-0.1,0.2,0,0.2,0.1c-0.7,1.4-1.6,2.8-2.7,4
		c-0.5,0.5-0.9,1-1.5,1.5c-0.1,0.3-0.3,0.6-0.4,0.9c-1,2-5.9,12.1-6.1,12.1l-2.3-0.3C73.5,271.5,73.5,271.2,73.6,271.2z"/>
	<path class="st5" d="M37.1,258.5c10.3,0.7,20.5,2.1,30.7,3.7c2.9,0.5,5.8,1,8.6,1.6c0.1,0,0.1,0.1,0,0.1
		c-5.1-0.5-10.2-1.1-15.3-1.7s-10.3-1.3-15.4-2.1c-2.9-0.4-5.8-0.9-8.6-1.4C36.9,258.6,36.9,258.5,37.1,258.5z"/>
	<path class="st6" d="M91.5,216.1c0.2,2.1,7.9,16.5,17.2,17.4c3,0.3,5.3-16.1,5.3-16.1l0.4-1.2l6.2-16.4l-18.1-15.6l-2.6-2.1
		c0,0-1.4,4.6-3.1,10.4c-0.1,0.3-0.2,0.5-0.3,0.8s-0.2,0.6-0.3,0.9c-0.3,0.9-0.5,1.7-0.8,2.6c-0.2,0.7-0.4,1.3-0.6,2
		s-0.4,1.4-0.6,2.1C93.1,205.9,92.2,211,91.5,216.1z"/>
	<path class="st5" d="M96.9,192.4c2.1,10.1,8.5,18.8,17.6,23.8l6.2-16.4l-18.1-15.6l-2.6-2.1C100,182.1,98.6,186.7,96.9,192.4z"/>
	<path class="st9" d="M126.2,174.6c1.6,7,7.9,11.6,14.1,10.2c6.2-1.4,9.9-8.2,8.3-15.3c-1.6-7.1-7.9-11.6-14.1-10.2
		C128.3,160.7,124.6,167.5,126.2,174.6z"/>
	<path class="st3" d="M122.6,175.9c1.8,7.8,8.8,12.9,15.7,11.4c6.9-1.5,11-9.2,9.2-17s-8.8-12.9-15.6-11.4
		C125.1,160.4,120.9,168,122.6,175.9z"/>
	<path class="st6" d="M142.9,165.8c8.4,29.6-8.4,38-14.8,39.8c-5.8,1.6-25.8,6.5-37.2-22.1s-0.3-41.9,12.8-46.4
		S134.5,136.2,142.9,165.8z"/>
	<path class="st5" d="M132.6,162.1c-0.7,0.1-1.4,0.1-2.1,0.1c-0.7,0.1-1.5,0-2.2-0.3c-0.4-0.3-0.5-0.8-0.3-1.3
		c0.5-0.8,1.5-1.3,2.4-1.3c1-0.1,2,0.2,2.8,0.7c0.5,0.4,0.6,1.2,0.1,1.7C133.1,161.9,132.8,162.1,132.6,162.1z"/>
	<path class="st5" d="M113,169c0.7-0.2,1.3-0.5,2-0.7s1.4-0.6,1.9-1.1c0.2-0.4,0.2-1-0.2-1.3c-0.8-0.6-1.9-0.7-2.8-0.2
		c-0.9,0.3-1.8,0.9-2.3,1.8c-0.3,0.6-0.1,1.3,0.5,1.6C112.4,169,112.7,169.1,113,169z"/>
	<path class="st5" d="M119,174.2c0-0.1-0.1,0.1-0.1,0.2c0.6,2,1,4.4-0.6,5.6c-0.1,0,0,0.1,0.1,0.1C120.5,179.2,119.9,176,119,174.2z
		"/>
	<path class="st5" d="M116.6,172.6c-3.3,0.7-1.7,7.3,1.4,6.6C121.1,178.5,119.4,172.1,116.6,172.6z"/>
	<path class="st5" d="M115.4,173.3c-0.5,0.5-0.9,1.3-1.6,1.6s-1.6-0.3-2.2-0.8c-0.1-0.1-0.1,0-0.1,0.1c0.3,1.3,1.1,2.4,2.5,2.3
		c1.4-0.1,1.9-1.5,1.9-2.8C115.9,173.4,115.6,173.1,115.4,173.3z"/>
	<path class="st5" d="M130.7,170.6c0-0.1,0.2,0.1,0.2,0.1c0.4,2.1,1.2,4.4,3.3,4.6c0.1,0,0.1,0.1,0,0.1
		C131.8,175.7,130.8,172.6,130.7,170.6z"/>
	<path class="st5" d="M132,168.1c3.2-1,5,5.5,2,6.4S129.3,168.9,132,168.1z"/>
	<path class="st5" d="M133.5,168.1c0.6,0.2,1.3,0.7,1.9,0.6s1.1-1,1.3-1.8c0-0.1,0.1,0,0.1,0c0.4,1.2,0.3,2.6-0.8,3.2
		c-1.1,0.6-2.1-0.3-2.8-1.5C133.2,168.4,133.3,168,133.5,168.1z"/>
	<path class="st5" d="M123.6,190.7c0.6,0.4,1.2,1,2,0.9c0.8-0.2,1.5-0.5,2.1-0.9h0.1v0.1l0,0c-0.4,0.9-1.4,1.6-2.4,1.6
		c-0.9,0-1.7-0.6-2-1.5C123.4,190.7,123.5,190.6,123.6,190.7z"/>
	<path class="st5" d="M130.3,180.5c0,0,1.2,2.9,1.6,4.4c0,0.1-4.9,2.5-8.1-0.4c-0.1,0-0.1-0.1,0-0.2c0-0.1,0.1-0.1,0.2,0l0,0
		c2.1,0.8,4.5,0.8,6.7,0.2c0-0.4-2.2-4.9-2-5c1.1-0.2,2.3-0.2,3.4-0.1c-2.3-6.2-5.6-11.9-7.8-18.1c0-0.1,0-0.2,0.1-0.3
		c0.1,0,0.2,0,0.2,0.1c3.9,5.8,6.7,12.8,9.2,19.1C134.2,180.9,131,180.6,130.3,180.5z"/>
	<path class="st5" d="M130.6,185.1c-0.5,1.3-1.4,2.5-2.5,3.4c-0.6,0.5-1.4,0.7-2.1,0.8c-1.7,0-2.2-1.4-2.2-2.7c0-0.7,0-1.4,0.2-2.1
		C126,185.4,128.4,185.6,130.6,185.1z"/>
	<path class="st10" d="M128.1,188.5c-0.6,0.5-1.4,0.7-2.1,0.8c-1.7,0-2.2-1.4-2.2-2.7C125.5,186.2,127.5,186.9,128.1,188.5z"/>
	<path class="st5" d="M92.3,182.5c5.7,0.4,6.4-12.8,6.4-12.8s24-5.6,24.9-25.5c0,0,4.9,12.3,18,17.3c0,0-2.2-21.6-19.6-24.8
		c0,0-21.8-6.5-32.7,11.2S88.4,182.3,92.3,182.5z"/>
	<path class="st5" d="M123.5,142.8c0.5,3,0.3,6.1-0.5,9.1s-2.2,5.8-4.1,8.3c-0.5,0.6-1,1.2-1.5,1.7l-0.8,0.9
		c-0.3,0.3-0.6,0.5-0.9,0.8c-0.6,0.5-1.2,1-1.8,1.4c-0.6,0.4-1.3,0.8-2,1.2c-0.3,0.2-0.6,0.4-1,0.6l-1,0.5l-2.1,0.9
		c-1.4,0.5-2.9,0.9-4.4,1.3c1.4-0.7,2.8-1.2,4.1-1.9l1.9-1.1l1-0.6c0.3-0.2,0.6-0.4,0.9-0.6c0.6-0.4,1.2-0.9,1.8-1.3
		c0.6-0.4,1.1-1,1.6-1.4l0.8-0.7l0.7-0.8c0.5-0.5,1-1.1,1.4-1.7c1.8-2.3,3.2-4.9,4.2-7.7c0.5-1.4,0.9-2.8,1.1-4.3
		C123.4,145.8,123.5,144.3,123.5,142.8z"/>
	<path class="st6" d="M96.6,182.2c0,0-8.4-8.2-12.3-5s3.8,15.9,9.1,16.8c2.8,0.7,5.6-1,6.3-3.8c0-0.1,0-0.1,0-0.2L96.6,182.2z"/>
	<path class="st5" d="M86.6,180.8C86.5,180.8,86.5,180.8,86.6,180.8C86.5,180.9,86.6,180.9,86.6,180.8c3.8,0.9,6.3,3.8,8.3,6.9
		c-1.3-1.1-2.9-1.5-4.4,0c-0.1,0.1,0,0.2,0.1,0.2c1.2-0.6,2.7-0.5,3.7,0.4c0.8,0.7,1.6,1.6,2.2,2.5c0.2,0.3,0.8,0,0.6-0.3l-0.1-0.1
		C96.2,186,91.5,180.3,86.6,180.8z"/>
	<path class="st3" d="M90.8,178.1c0,0-5.5-14.6-3.6-24.1c2.1-10.6,15.2-22.6,30.2-18.1c0,0-17.8,2.7-24.1,17
		c-2.9,6.6,2.6,24.1,2.6,24.1L90.8,178.1z"/>
	<ellipse transform="matrix(0.9548 -0.2974 0.2974 0.9548 -50.7472 36.6281)" class="st3" cx="95" cy="185.1" rx="12.6" ry="14.3"/>
	<path class="st9" d="M103.3,182c2.1,6.8-1,13.8-7,15.6s-12.5-2.1-14.6-8.9c-2.1-6.8,1-13.8,7-15.6
		C94.7,171.3,101.2,175.3,103.3,182z"/>
	<path class="st0" d="M114.4,216.3l-5.5,13.9l-17.3-17.5l-4.9,5.6c0,0,17,27.8,17.1,26.5l5.7-12l8.3,8.3l-0.7-20.8L114.4,216.3z"/>
	<path class="st5" d="M118,230.9c-0.3-3.4-0.4-6.9-0.8-10.3c0-0.1-0.2-0.2-0.2,0c-0.7,3.3,0.3,16.5,0.3,19.6l0,0
		c-0.3-0.4-7.7-7.3-7.7-7.2c-1.2,1.9-5.4,10.6-5.7,11.4c-2.7-4.4-14.1-21.8-17.2-26c0,0-0.1,0-0.2,0v0.1
		c2.4,4.7,17.1,27.6,17.3,27.5c2.2-4.1,4.2-8.3,5.9-12.6c1.2,1.5,8.6,9.3,8.7,8.8C118.4,238.5,118.3,234.7,118,230.9z"/>
</g>
<g id="freepik--speech-bubbles--inject-198">
	<path class="st1" d="M214.4,123.9c-1.8,17.1-17.1,29.6-34.3,27.8c-6.7-0.7-12.9-3.5-17.9-8.1l-15.6,2.3l7.8-13.5
		c-6.4-16,1.3-34.2,17.3-40.6s34.2,1.3,40.6,17.3C214.2,113.7,214.9,118.8,214.4,123.9L214.4,123.9z"/>
	<path class="st5" d="M214.4,123.9c-0.6,5.8-2.8,11.2-6.3,15.8c-1.7,2.3-3.8,4.3-6.1,6s-4.8,3.2-7.5,4.2c-2.7,1.1-5.5,1.7-8.4,2
		c-1.4,0.1-2.9,0.2-4.3,0.1c-1.4,0-2.9-0.2-4.3-0.4c-5.8-1-11.1-3.7-15.5-7.6l0.4,0.1l-15.6,2.4l-1.1,0.2l0.6-1l7.8-13.5v0.5
		c-3.7-9.1-3-19.3,1.9-27.8c2.4-4.2,5.8-7.7,9.8-10.4c8.1-5.4,18.2-6.7,27.4-3.7c4.5,1.5,8.6,4.1,12,7.4
		C211.9,104.8,215.4,114.3,214.4,123.9z M214.4,123.9c1.8-17-10.5-32.2-27.4-34c-2.6-0.3-5.3-0.2-8,0.2c-4.6,0.7-9,2.4-12.9,5.1
		c-3.8,2.7-7,6.1-9.3,10.2c-4.7,8.2-5.3,18.1-1.8,26.8l0.1,0.3l-0.1,0.3l-7.9,13.5l-0.6-0.8l15.6-2.2h0.2l0.1,0.1
		c4.2,3.9,9.4,6.6,15,7.7c1.4,0.3,2.8,0.5,4.2,0.5c1.4,0.1,2.8,0.1,4.3,0c2.9-0.2,5.7-0.8,8.3-1.8c2.7-1,5.2-2.3,7.5-4.1
		c2.3-1.7,4.4-3.7,6.1-6C211.6,135,213.8,129.6,214.4,123.9z"/>
	<circle class="st5" cx="197" cy="121.6" r="3.8"/>
	<circle class="st5" cx="183.4" cy="121.6" r="3.8"/>
	<circle class="st5" cx="169.9" cy="121.6" r="3.8"/>
	<path class="st1" d="M524.8,123.9c-1.8,17.1-17.1,29.6-34.3,27.8c-6.7-0.7-12.9-3.5-17.9-8.1l-15.6,2.3l7.8-13.5
		c-6.5-16,1.2-34.2,17.2-40.6c16-6.5,34.2,1.2,40.6,17.2C524.6,113.7,525.4,118.8,524.8,123.9L524.8,123.9z"/>
	<path class="st5" d="M524.8,123.9c-0.6,5.8-2.8,11.2-6.3,15.8c-0.9,1.1-1.8,2.2-2.8,3.3c-1,1-2.1,1.9-3.3,2.8
		c-2.3,1.7-4.8,3.2-7.5,4.2c-2.7,1.1-5.5,1.7-8.4,2c-1.4,0.1-2.9,0.2-4.3,0.1c-1.4,0-2.9-0.2-4.3-0.4c-5.8-1.1-11.1-3.7-15.4-7.6
		l0.4,0.1l-15.6,2.4l-1.1,0.2l0.6-1l7.8-13.5v0.5c-3.7-9.1-3-19.3,1.9-27.8c2.4-4.2,5.8-7.7,9.8-10.4c8.1-5.4,18.2-6.7,27.4-3.7
		c4.5,1.5,8.6,4.1,12,7.4C522.4,104.8,525.8,114.3,524.8,123.9z M524.8,123.9c1.8-17-10.5-32.2-27.4-34c-2.6-0.3-5.3-0.2-8,0.2
		c-4.6,0.7-9,2.4-12.9,5.1c-3.8,2.7-7,6.1-9.3,10.2c-2.3,4-3.7,8.6-4,13.2s0.5,9.3,2.2,13.6l0.1,0.3l-0.2,0.3l-7.9,13.5l-0.6-0.8
		l15.6-2.2h0.2l0.2,0.1c4.2,3.9,9.3,6.6,15,7.7c1.4,0.3,2.8,0.5,4.2,0.5c1.4,0.1,2.8,0.1,4.3,0c2.9-0.2,5.7-0.8,8.3-1.8
		c2.7-1,5.2-2.3,7.5-4.1c2.3-1.7,4.4-3.7,6.1-6C521.9,135.1,524.2,129.6,524.8,123.9z"/>
	<circle class="st5" cx="507.3" cy="121.6" r="3.8"/>
	<circle class="st5" cx="493.8" cy="121.6" r="3.8"/>
	<path class="st5" d="M484.1,121.6c0,2.1-1.7,3.8-3.8,3.8c-2.1,0-3.8-1.7-3.8-3.8c0-2.1,1.7-3.8,3.8-3.8l0,0
		C482.4,117.8,484.1,119.5,484.1,121.6z"/>
</g>
<g id="freepik--Devices--inject-198">
	<rect x="156.1" y="345.1" class="st9" width="6.7" height="4.4"/>
	<rect x="164.7" y="344.8" class="st9" width="6.7" height="4.4"/>
	<rect x="173.4" y="344.5" class="st9" width="6.7" height="4.4"/>
	<rect x="182" y="344.2" class="st9" width="6.7" height="4.4"/>
	<rect x="190.7" y="343.9" class="st9" width="6.7" height="4.4"/>
	<rect x="199.4" y="343.6" class="st9" width="6.7" height="4.4"/>
	<rect x="208.1" y="343.3" class="st9" width="6.7" height="4.4"/>
	<rect x="216.8" y="343" class="st9" width="6.7" height="4.4"/>
	<rect x="225.4" y="342.9" class="st9" width="6.7" height="4.4"/>
	<polygon class="st12" points="233.8,351.9 154.5,351.9 154.5,346.6 233.8,344.4 	"/>
	<polygon class="st9" points="311.2,331.1 180.2,331.1 201,233.5 332.1,233.5 	"/>
	<polygon class="st12" points="316.1,331.1 185,331.1 205.9,233.5 336.9,233.5 	"/>
	<path class="st5" d="M272.3,276.7c-0.8,4.6-4.7,8-9.4,8.1c-3.7,0.1-6.8-2.8-6.9-6.5c0-0.5,0-1.1,0.1-1.6c0.8-4.6,4.7-8,9.4-8.1
		c3.7-0.1,6.8,2.8,7,6.5C272.5,275.6,272.4,276.1,272.3,276.7z"/>
	<polygon class="st9" points="279,356.5 214.6,356.5 214.6,351.5 279,349.4 	"/>
	<polygon class="st9" points="296.5,356.5 261.9,356.5 241.1,301.9 275.7,301.9 	"/>
	<polygon class="st5" points="302.2,356.5 267.6,356.5 246.8,301.9 281.4,301.9 	"/>
	<path class="st12" d="M152,357.8H85.6c-5.7,0,2.5-16.1,23.2-22.3C129.5,329.4,158.6,351.7,152,357.8z"/>
	<path class="st5" d="M126,357.8c0-1.8,0.3-3.7,0.9-5.4c0.5-1.8,1.3-3.5,2.2-5.1c1-1.6,2.1-3,3.5-4.3c1.4-1.2,3-2.2,4.7-2.9
		c-0.7,0.6-1.5,1-2.2,1.6l-1,0.9l-0.9,1c-1.2,1.3-2.3,2.7-3.2,4.2s-1.7,3.1-2.4,4.8C127,354.3,126.4,356.1,126,357.8z"/>
	<path class="st5" d="M133.8,342.5c4,1.3,7.7,3.1,11.1,5.5c1.7,1.2,3.3,2.6,4.6,4.2c1.4,1.6,2.3,3.6,2.5,5.7c-0.6-2-1.6-3.7-3.1-5.1
		c-1.4-1.4-3-2.7-4.6-3.9c-1.6-1.2-3.4-2.3-5.1-3.3C137.5,344.5,135.6,343.4,133.8,342.5z"/>
	<rect x="462.9" y="345.1" class="st9" width="6.7" height="4.4"/>
	<rect x="471.6" y="344.8" class="st9" width="6.7" height="4.4"/>
	<rect x="480.2" y="344.5" class="st9" width="6.7" height="4.4"/>
	<rect x="488.8" y="344.2" class="st9" width="6.7" height="4.4"/>
	<rect x="497.5" y="343.9" class="st9" width="6.7" height="4.4"/>
	<rect x="506.2" y="343.6" class="st9" width="6.7" height="4.4"/>
	<rect x="514.8" y="343.3" class="st9" width="6.7" height="4.4"/>
	<rect x="523.5" y="343" class="st9" width="6.7" height="4.4"/>
	<rect x="532.2" y="342.9" class="st9" width="6.7" height="4.4"/>
	<polygon class="st12" points="540.5,351.9 461.2,351.9 461.2,346.6 540.5,344.4 	"/>
	<polygon class="st9" points="618,331.1 487,331.1 507.8,233.5 638.8,233.5 	"/>
	<polygon class="st12" points="622.8,331.1 491.8,331.1 512.6,233.5 643.7,233.5 	"/>
	<path class="st5" d="M579.1,276.7c-0.8,4.6-4.7,7.9-9.4,8.1c-3.7,0.1-6.8-2.8-7-6.5c0-0.5,0-1.1,0.1-1.6c0.8-4.6,4.7-8,9.4-8.1
		c3.7-0.1,6.8,2.8,7,6.5C579.2,275.6,579.2,276.1,579.1,276.7z"/>
	<polygon class="st9" points="585.8,356.5 521.3,356.5 521.3,351.5 585.8,349.4 	"/>
	<polygon class="st9" points="603.3,356.5 568.7,356.5 547.8,301.9 582.5,301.9 	"/>
	<polygon class="st5" points="609,356.5 574.4,356.5 553.6,301.9 588.2,301.9 	"/>
	<path class="st12" d="M458.8,357.8h-66.5c-5.7,0,2.5-16.1,23.2-22.3C436.2,329.4,465.3,351.7,458.8,357.8z"/>
	<path class="st5" d="M432.7,357.8c0-1.8,0.4-3.7,0.9-5.4c0.5-1.8,1.3-3.5,2.2-5.1c1-1.6,2.1-3,3.5-4.3c1.4-1.2,3-2.2,4.7-2.9
		c-0.7,0.6-1.5,1-2.2,1.6l-1,0.9l-0.9,1c-1.2,1.3-2.3,2.7-3.2,4.2c-0.9,1.5-1.7,3.1-2.4,4.8C433.7,354.3,433.1,356.1,432.7,357.8z"
		/>
	<path class="st5" d="M440.6,342.5c4,1.3,7.7,3.1,11.1,5.5c1.7,1.2,3.3,2.6,4.6,4.2c1.4,1.6,2.3,3.6,2.5,5.7c-0.6-2-1.6-3.7-3.1-5.1
		c-1.4-1.4-3-2.7-4.6-3.9c-1.6-1.2-3.4-2.3-5.1-3.3C444.3,344.5,442.4,343.4,440.6,342.5z"/>
</g>
</svg>
