<?xml version="1.0" encoding="utf-8"?>
<!-- Generator: Adobe Illustrator 24.0.2, SVG Export Plug-In . SVG Version: 6.00 Build 0)  -->
<svg version="1.1" id="Layer_1" xmlns:svgjs="http://svgjs.com/svgjs"
	 xmlns="http://www.w3.org/2000/svg" xmlns:xlink="http://www.w3.org/1999/xlink" x="0px" y="0px" viewBox="0 0 512 512"
	 style="enable-background:new 0 0 512 512;" xml:space="preserve">
<style type="text/css">
	.st0{fill:#411036;}
	.st1{fill:#ED7CF1;}
</style>
<g id="mGsITT.tif">
	<g>
		<path class="st0" d="M507.92,94.35c0,107.77,0,215.53,0,323.3c-0.13,0.61-0.33,1.21-0.38,1.82c-0.53,7.64-1.97,15.12-4.67,22.27
			c-11.93,31.66-34.45,51.13-67.56,58.22c-3.74,0.8-7.58,1.12-11.37,1.67c-111.97,0-223.93,0-335.9,0
			c-0.54-0.12-1.07-0.32-1.62-0.36c-13.76-0.99-26.64-4.93-38.41-12.07C25.15,475.35,10.97,455.28,5.74,429
			c-0.75-3.75-1.12-7.57-1.66-11.35c0-107.77,0-215.53,0-323.3c0.13-0.6,0.33-1.2,0.37-1.8c1.27-16.57,6.72-31.65,16.51-45.05
			c13.97-19.13,32.63-31.02,55.93-35.48c3.69-0.71,7.44-1.1,11.16-1.64c111.97,0,223.93,0,335.9,0c0.61,0.13,1.21,0.33,1.83,0.37
			c8.92,0.62,17.59,2.49,25.81,5.97c29.72,12.57,48.02,34.65,54.67,66.27C507.04,86.73,507.38,90.56,507.92,94.35z M386.63,186.65
			c-1.28,0-2.19,0.06-3.09-0.01c-14.29-1.18-28.44-0.18-42.15,4.01c-31.16,9.52-51.79,29.81-60.81,61.3
			c-4.08,14.24-3.58,28.8-1.27,43.28c2.38,14.92,8.41,28.17,18.68,39.4c13.6,14.87,31.08,21.88,50.46,25.03
			c10.98,1.78,22.02,1.45,33.06,0.5c17.25-1.49,33.95-5.25,49.98-11.84c2.62-1.08,3.12-1.79,2.98-4.6
			c-0.27-5.17-0.8-10.33-0.88-15.5c-0.2-14.2-0.3-28.4-0.31-42.6c-0.03-54.64-0.01-109.28-0.01-163.91c0-3.42-0.1-3.51-3.55-3.51
			c-13.22,0-26.44,0-39.67,0c-3.21,0-3.43,0.23-3.43,3.5c0,20.71,0,41.42,0,62.12C386.63,184.72,386.63,185.61,386.63,186.65z
			 M77.13,356.89c1.79,0,2.82,0,3.86,0c14.49,0,28.97-0.06,43.46,0.04c3.08,0.02,5.06-0.89,6.45-3.81c2.04-4.29,4.57-8.34,6.8-12.54
			c11.44-21.55,22.85-43.12,34.29-64.68c0.31-0.58,0.73-1.09,1.23-1.82c0.45,0.75,0.68,1.09,0.87,1.46
			c13.67,25.51,27.39,51,40.95,76.57c1.6,3.01,3.6,4.32,6.91,4.31c16.51-0.05,33.03,0,49.54,0c0.67,0,1.33-0.1,2.54-0.2
			c-0.7-1.59-1.1-2.91-1.79-4.04c-21.71-35.67-43.43-71.32-65.2-106.95c-0.78-1.28-0.92-2.19-0.09-3.55
			c20.53-33.77,41-67.56,61.45-101.37c0.5-0.82,0.6-1.88,0.89-2.83c-0.95-0.27-1.91-0.77-2.86-0.78
			c-14.62-0.08-29.25-0.09-43.87-0.13c-1.54,0-2.66,0.5-3.31,2.02c-0.72,1.67-1.61,3.26-2.45,4.87
			c-13.04,24.82-26.07,49.64-39.12,74.46c-0.21,0.4-0.51,0.74-0.93,1.34c-0.54-1.02-0.95-1.81-1.37-2.6
			c-5.42-10.02-10.72-20.11-16.29-30.05c-8.44-15.07-17.11-30.02-24.09-45.85c-1.44-3.26-3.58-4.43-6.98-4.41
			c-15.18,0.08-30.37,0.03-45.56,0.04c-0.49,0-0.99-0.03-1.47,0.04c-1.69,0.24-2.14,1.1-1.38,2.62c0.22,0.44,0.49,0.85,0.74,1.27
			c20.63,34.93,41.25,69.86,61.92,104.76c0.83,1.4,0.85,2.38-0.01,3.77c-6.65,10.77-13.21,21.6-19.8,32.41
			c-14.57,23.89-29.14,47.77-43.68,71.67C78.13,353.98,77.8,355.25,77.13,356.89z"/>
		<path class="st1" d="M386.63,186.65c0-1.04,0-1.93,0-2.82c0-20.71,0-41.42,0-62.12c0-3.27,0.22-3.5,3.43-3.5
			c13.22,0,26.44,0,39.67,0c3.45,0,3.55,0.09,3.55,3.51c0,54.64-0.02,109.28,0.01,163.91c0.01,14.2,0.1,28.4,0.31,42.6
			c0.07,5.17,0.6,10.33,0.88,15.5c0.15,2.81-0.36,3.52-2.98,4.6c-16.03,6.6-32.73,10.36-49.98,11.84
			c-11.04,0.95-22.08,1.28-33.06-0.5c-19.38-3.15-36.86-10.17-50.46-25.03c-10.27-11.23-16.3-24.49-18.68-39.4
			c-2.31-14.48-2.81-29.04,1.27-43.28c9.02-31.49,29.65-51.78,60.81-61.3c13.71-4.19,27.86-5.19,42.15-4.01
			C384.45,186.71,385.36,186.65,386.63,186.65z M386.63,272.91c0-14.76-0.03-29.52,0.04-44.27c0.01-1.67-0.51-2.27-2.14-2.56
			c-10.72-1.95-21.23-1.27-31.25,3.09c-11.97,5.2-21.19,13.42-25.31,26.15c-3.52,10.88-3.48,22.03-0.78,33.13
			c2.44,10.02,7.07,18.77,15.89,24.59c12.99,8.59,27.45,8.33,42.11,6.43c1.63-0.21,1.45-1.36,1.45-2.49
			C386.63,302.29,386.63,287.6,386.63,272.91z"/>
		<path class="st1" d="M77.13,356.89c0.67-1.64,0.99-2.9,1.64-3.97c14.54-23.9,29.11-47.78,43.68-71.67
			c6.59-10.81,13.15-21.64,19.8-32.41c0.86-1.39,0.84-2.37,0.01-3.77c-20.67-34.9-41.29-69.83-61.92-104.76
			c-0.25-0.42-0.52-0.83-0.74-1.27c-0.76-1.52-0.31-2.37,1.38-2.62c0.48-0.07,0.98-0.03,1.47-0.04c15.19,0,30.37,0.04,45.56-0.04
			c3.4-0.02,5.54,1.15,6.98,4.41c6.98,15.83,15.64,30.78,24.09,45.85c5.57,9.94,10.87,20.03,16.29,30.05
			c0.42,0.78,0.83,1.58,1.37,2.6c0.42-0.6,0.72-0.94,0.93-1.34c13.05-24.82,26.09-49.63,39.12-74.46c0.84-1.61,1.73-3.2,2.45-4.87
			c0.66-1.52,1.77-2.03,3.31-2.02c14.62,0.04,29.25,0.05,43.87,0.13c0.95,0.01,1.91,0.51,2.86,0.78c-0.29,0.95-0.4,2-0.89,2.83
			c-20.45,33.81-40.93,67.61-61.45,101.37c-0.83,1.36-0.69,2.27,0.09,3.55c21.76,35.63,43.49,71.28,65.2,106.95
			c0.69,1.14,1.09,2.45,1.79,4.04c-1.21,0.1-1.87,0.2-2.54,0.2c-16.51,0-33.03-0.05-49.54,0c-3.31,0.01-5.32-1.3-6.91-4.31
			c-13.56-25.57-27.28-51.06-40.95-76.57c-0.2-0.37-0.43-0.71-0.87-1.46c-0.49,0.73-0.92,1.24-1.23,1.82
			c-11.43,21.56-22.84,43.12-34.29,64.68c-2.23,4.2-4.76,8.25-6.8,12.54c-1.39,2.92-3.37,3.83-6.45,3.81
			c-14.48-0.1-28.97-0.04-43.46-0.04C79.96,356.89,78.92,356.89,77.13,356.89z"/>
		<path class="st0" d="M386.63,272.91c0,14.69,0,29.38,0,44.06c0,1.13,0.18,2.28-1.45,2.49c-14.66,1.89-29.12,2.15-42.11-6.43
			c-8.81-5.83-13.45-14.57-15.89-24.59c-2.7-11.1-2.73-22.25,0.78-33.13c4.11-12.73,13.34-20.95,25.31-26.15
			c10.02-4.36,20.53-5.04,31.25-3.09c1.63,0.3,2.14,0.9,2.14,2.56C386.61,243.39,386.63,258.15,386.63,272.91z"/>
	</g>
</g>
</svg>
