<?xml version="1.0" encoding="utf-8"?>
<!-- Generator: Adobe Illustrator 26.0.0, SVG Export Plug-In . SVG Version: 6.00 Build 0)  -->
<svg version="1.1" id="Layer_1" xmlns="http://www.w3.org/2000/svg" xmlns:xlink="http://www.w3.org/1999/xlink" x="0px" y="0px"
	 viewBox="0 0 1000 1000" style="enable-background:new 0 0 1000 1000;" xml:space="preserve">
<style type="text/css">
	.st0{fill:url(#SVGID_1_);}
	.st1{fill:#FFFFFF;}
	.st2{fill:#ED2024;}
	.st3{display:none;}
	.st4{font-family:'Poppins-Medium';}
	.st5{font-size:30.4651px;}
</style>
<linearGradient id="SVGID_1_" gradientUnits="userSpaceOnUse" x1="233.5328" y1="595.5097" x2="233.5328" y2="383.6227">
	<stop  offset="0" style="stop-color:#ED2024"/>
	<stop  offset="1" style="stop-color:#ED184B"/>
</linearGradient>
<path class="st0" d="M301.45,596.67H165.62c-26.53,0-48.03-21.5-48.03-48.03V412.81c0-26.53,21.5-48.03,48.03-48.03h135.83
	c26.53,0,48.03,21.5,48.03,48.03v135.83C349.48,575.16,327.97,596.67,301.45,596.67z"/>
<path class="st1" d="M212.24,487.33c-0.85,0.16-3.72,2.03-4.42,2.17c-2.22,0.44-4.54,0.59-6.81,0.54c-2.17-0.05-4.27-1.34-4.42-3.36
	c-0.14-1.8,0.69-4.41,2.03-5.43c2.25-1.72,5.2-3.27,7.95-3.45c4.89-0.33,9.94-0.03,14.78,0.81c12.26,2.13,23.31,7.18,32.81,15.29
	c7.09,6.05,13.06,13.16,17.95,21.06c4.03,6.51,7.75,13.25,11.09,20.14c3.27,6.76,5.89,13.84,8.87,20.95
	c9.87-1.86,19.78-3.73,30.16-5.69c-1.18-2.26-2.21-4.45-3.43-6.53c-11.39-19.41-23.99-37.92-40.91-53.04
	c-4.62-4.13-9.8-7.64-14.69-11.47c-0.65-0.51-1.52-1.18-1.62-1.88c-0.6-4.11-1-8.24-1.51-12.78c12.91,7.57,27.01,10.51,41.6,12.81
	c-0.23-3.07-0.6-5.83-0.6-8.59c0.01-4.63,0.2-9.27,0.44-13.89c0.08-1.49-0.49-1.82-1.79-1.75c-11.48,0.58-22.89-0.14-34.11-2.64
	c-9.88-2.2-19.27-5.72-27.56-11.75c-0.3-0.22-0.7-0.3-1.52-0.65c5.17,10.48,9.95,20.65,10.61,32.46c-4.1-1.31-7.81-2.44-11.46-3.73
	c-0.56-0.2-1.1-1.09-1.23-1.75c-3.42-17.34-18.11-27.45-33.67-28.89c-8.81-0.81-17.29,0.24-25.51,3.39
	c-4.54,1.74-9.03,3.62-13.8,5.55c2.16,3.75,4.22,7.02,5.98,10.45c1.74,3.41,3.17,6.98,4.86,10.78c0.93-0.68,1.93-1.37,2.89-2.11
	c8.13-6.33,17.25-10.22,27.62-10.36c6.71-0.09,13.6,3.19,15.81,9.94c-4.36,0.29-8.76,0.34-13.1,0.91
	c-8.67,1.14-16.35,4.24-21.84,11.59c-7.27,9.75-3.62,23.08,10.37,26.05c9.9,2.1,19.35,0.63,27.8-5.2c2.58-1.78,4.77-4.14,7.13-6.23
	c-0.04-0.33-0.08-0.65-0.12-0.98c-4.18-1.6-8.3-3.4-12.58-4.66C215.25,485.14,213.7,486.61,212.24,487.33z"/>
<path class="st1" d="M164.2,496.65c-2.89,6.02-5.56,11.61-8.25,17.19c-0.93,1.93-1.83,3.89-2.9,5.75c-0.95,1.66-0.35,2.59,1.07,3.54
	c8.68,5.79,18.1,9.56,28.41,11.37c11.25,1.97,22.36,1.68,33.33-1.32c14.68-4.02,26.95-11.82,36.32-23.98
	c1.15-1.49,1.25-2.6-0.08-3.95c-3.31-3.38-6.57-6.82-10.09-10.49c-9.63,13.92-22.86,19.8-38.67,20.08
	C187.65,515.13,174.36,509.62,164.2,496.65z"/>
<path class="st1" d="M198.08,410.25c2.18,11.45,13.5,22.46,25,24.31c6.97,1.13,11.59-3.15,10.42-11.99
	c-1.14-8.57-6.05-14.96-12.84-19.97c-4.07-3-8.45-5.27-13.7-5.68c-7.32-0.57-9.74,4.68-9.44,10.25
	C197.58,408.21,197.89,409.22,198.08,410.25z"/>
<g>
	<path d="M446.14,392.26c0.78,0.31,1.44,0.59,1.99,0.82c0.55,0.23,1.13,0.35,1.76,0.35c4.22,0.63,8.4,1.41,12.54,2.34
		c4.14,0.94,8.17,2.34,12.08,4.22c0.78,0.31,1.56,0.67,2.34,1.06c0.78,0.39,1.56,0.9,2.34,1.52c2.5,1.88,3.63,4.22,3.4,7.03
		c-0.23,2.81-1.68,5.08-4.34,6.8c-1.56,1.1-3.25,1.76-5.04,1.99c-1.8,0.23-3.56,0.27-5.28,0.12c-4.07-0.15-8.17-0.31-12.31-0.47
		c-4.14-0.15-8.25-0.31-12.31-0.47c-2.19-0.15-4.26,0.04-6.21,0.59c-1.96,0.55-3.87,1.21-5.74,1.99c-3.28,1.56-5.16,3.83-5.63,6.8
		c-0.16,2.34-0.39,4.73-0.7,7.15c-0.31,2.43-0.31,4.73,0,6.92c0.62,6.88,1.17,13.64,1.64,20.28c0.47,6.65,0.62,13.33,0.47,20.05
		c0,0.78,0.04,1.56,0.12,2.34c0.08,0.78,0.19,1.64,0.35,2.58c0.78-0.31,1.48-0.51,2.11-0.59c0.62-0.08,1.25-0.27,1.88-0.59
		c2.81-1.25,5.7-2.15,8.68-2.7c2.97-0.55,6.02-0.97,9.14-1.29c3.28-0.47,6.41,0,9.38,1.41c1.88,0.94,3.4,2.19,4.57,3.75
		c1.17,1.56,1.84,3.44,1.99,5.63c0.47,4.85-1.25,8.52-5.16,11.02c-1.72,1.25-3.6,2.07-5.63,2.46c-2.03,0.39-4.07,0.82-6.1,1.29
		c-5.32,1.1-10.79,2.5-16.41,4.22c-1.25,0.32-2.19,0.63-2.81,0.94c-0.63,0.31-1.1,0.67-1.41,1.05c-0.31,0.39-0.51,0.94-0.59,1.64
		c-0.08,0.7-0.12,1.6-0.12,2.7v12.9c0.15,5.63-1.17,10.94-3.99,15.94c-2.19,3.91-5.28,6.02-9.26,6.33
		c-3.99,0.31-7.39-1.25-10.2-4.69c-2.03-2.66-3.56-5.35-4.57-8.09c-1.02-2.73-1.68-5.66-1.99-8.79c-0.63-7.5-0.94-14.85-0.94-22.04
		c0-7.19,0.15-14.54,0.47-22.04c0.15-3.59,0.12-7.11-0.12-10.55c-0.23-3.44-0.27-6.95-0.12-10.55c0.31-6.88,0.62-13.68,0.94-20.4
		c0.31-6.72,0.86-13.52,1.64-20.4c0.78-8.28,3.75-15.08,8.91-20.4c5.16-5.31,11.8-8.75,19.93-10.32c1.25-0.31,2.5-0.62,3.75-0.94
		c1.25-0.31,2.5-0.62,3.75-0.94H446.14z M403,528.96c-0.31,0-0.51,0.04-0.59,0.12c-0.08,0.08-0.27,0.12-0.59,0.12
		c0,0.78-0.04,1.52-0.12,2.23c-0.08,0.7-0.04,1.45,0.12,2.23c0.47,2.66,1.21,5.04,2.23,7.15c1.01,2.11,2.62,3.95,4.81,5.51
		c1.09,0.78,2.23,1.25,3.4,1.41c1.17,0.16,2.46-0.23,3.87-1.17c-1.88-0.94-3.63-1.88-5.28-2.81c-1.64-0.94-2.85-2.34-3.63-4.22
		C405.5,536.08,404.09,532.56,403,528.96z M405.35,425.09c0.78-1.88,1.41-3.63,1.88-5.28c0.47-1.64,1.09-3.08,1.88-4.34
		c1.56-2.81,3.59-5.63,6.1-8.44c1.09-1.09,2.3-2.11,3.63-3.05c1.33-0.94,2.77-2.03,4.34-3.28c-2.5,0-4.96,0.78-7.39,2.34
		c-2.43,1.56-4.54,3.6-6.33,6.1c-1.8,2.5-3.13,5.16-3.99,7.97C404.6,419.93,404.56,422.59,405.35,425.09z M449.43,502
		c2.66,0.63,4.81,0.32,6.45-0.94c1.64-1.25,3.08-2.73,4.34-4.46c0.78-1.25,1.33-2.58,1.64-3.99c0.31-1.41-0.32-3.05-1.88-4.92
		c0.15,2.19-0.12,3.99-0.82,5.39c-0.7,1.41-1.6,2.58-2.7,3.52c-1.1,0.94-2.27,1.84-3.52,2.7C451.69,500.16,450.52,501.06,449.43,502
		z M466.07,415.24c4.06,1.56,7.58,0.94,10.55-1.88c0.94-0.78,1.52-1.48,1.76-2.11c0.23-0.62,0.19-1.33-0.12-2.11L466.07,415.24z"/>
	<path d="M522.35,492.39c2.19,4.85,4.46,9.65,6.8,14.42c2.35,4.77,5.31,9.34,8.91,13.72c0.78,0.78,1.56,1.56,2.35,2.34
		c0.78,0.78,1.56,1.64,2.34,2.58c2.35,2.97,2.5,6.18,0.47,9.61c-1.72,3.6-4.54,5.39-8.44,5.39c-2.5,0-4.69-0.62-6.56-1.88
		c-1.56-1.25-3.21-2.38-4.92-3.4c-1.72-1.01-3.21-2.23-4.46-3.63c-3.6-3.91-6.8-8.05-9.61-12.43c-1.25-2.19-2.38-4.49-3.4-6.92
		c-1.02-2.42-2.15-4.81-3.4-7.15c-0.31-0.47-0.86-0.94-1.64-1.41c-0.16,1.41-0.31,2.81-0.47,4.22c-0.16,1.41-0.31,2.81-0.47,4.22
		c0,1.56-0.04,3.13-0.12,4.69c-0.08,1.56-0.51,3.05-1.29,4.46c-1.25,2.5-3.01,4.38-5.28,5.63c-2.27,1.25-4.73,1.72-7.39,1.41
		c-2.66-0.47-5-1.68-7.03-3.63c-2.03-1.95-3.13-4.26-3.28-6.92c-0.31-2.34-0.39-4.69-0.23-7.03s0.31-4.77,0.47-7.27
		c0.15-2.66,0.31-5.39,0.47-8.21c0.15-2.81,0.31-5.63,0.47-8.44v-10.55c-0.16-4.22-0.23-8.48-0.23-12.78c0-4.3-0.08-8.56-0.23-12.78
		c-0.16-1.72-0.31-3.48-0.47-5.28c-0.16-1.8-0.31-3.55-0.47-5.28c0-3.12,0.82-5.82,2.46-8.09c1.64-2.26,4.02-3.79,7.15-4.57
		c3.59-0.78,7.23-1.6,10.9-2.46c3.67-0.86,7.39-1.13,11.14-0.82c8.91,0.47,16.8,3.67,23.68,9.61c5.94,5,9.85,11.1,11.72,18.29
		c2.97,12.04,0.23,22.27-8.21,30.72c-1.72,1.72-3.56,3.32-5.51,4.81C526.6,489.07,524.53,490.67,522.35,492.39z M480.84,506.45
		c-0.63,0.63-0.94,1.02-0.94,1.17c-0.16,0.16-0.23,0.31-0.23,0.47c0,0.16-0.08,0.32-0.23,0.47c-0.32,5.16,1.33,9.3,4.92,12.43
		c0.94,0.63,2.19,1.09,3.75,1.41c0.15,0,0.78-0.15,1.88-0.47c-0.31-0.94-0.7-1.56-1.17-1.88c-4.38-2.5-6.8-6.33-7.27-11.49
		c0-0.31-0.08-0.62-0.23-0.94C481.16,507.32,481,506.92,480.84,506.45z M481.78,443.15c0.15,0,0.27-0.04,0.35-0.12
		c0.08-0.08,0.19-0.12,0.35-0.12c0.15-0.31,0.23-0.59,0.23-0.82s0.08-0.51,0.23-0.82c0.31-1.72,0.78-3.28,1.41-4.69
		c0.62-1.41,1.64-2.73,3.05-3.99c0.31-0.31,0.47-0.62,0.47-0.94c0-0.31,0.08-0.62,0.23-0.94c-0.31,0-0.67-0.04-1.06-0.12
		c-0.39-0.08-0.74-0.04-1.06,0.12c-1.72,0.78-3.09,2.31-4.1,4.57c-1.02,2.27-1.37,4.26-1.06,5.98c0.15,0.31,0.31,0.63,0.47,0.94
		C481.47,442.52,481.62,442.83,481.78,443.15z M500.77,471.05c6.1-0.47,11.33-2.66,15.71-6.56c0.78-0.62,1.41-1.41,1.88-2.34
		c0.47-0.94,0.62-1.8,0.47-2.58c0-1.25-0.23-2.42-0.7-3.52c-0.47-1.09-1.1-2.11-1.88-3.05c-1.72-2.66-4.38-4.69-7.97-6.1
		c-3.6-1.41-6.8-1.72-9.61-0.94c0.31,4.22,0.66,8.4,1.06,12.54C500.11,462.65,500.46,466.83,500.77,471.05z M521.88,447.37
		c-0.16,0.16-0.27,0.23-0.35,0.23c-0.08,0-0.2,0.08-0.35,0.23c0.15,0.31,0.23,0.59,0.23,0.82c0,0.23,0.08,0.51,0.23,0.82
		c2.19,5,1.8,9.69-1.17,14.07c-0.63,0.94-1.25,1.84-1.88,2.7c-0.63,0.86-1.25,1.68-1.88,2.46c-0.16,0.16-0.39,0.78-0.7,1.88
		c0.31-0.15,0.62-0.19,0.94-0.12c0.31,0.08,0.62,0.04,0.94-0.12c3.44-1.88,5.78-4.92,7.03-9.14c1.25-4.22,0.94-8.05-0.94-11.49
		c-0.31-0.31-0.67-0.7-1.05-1.17C522.54,448.07,522.19,447.68,521.88,447.37z M521.88,523.1l-0.47,0.23c0,0.78,0.08,1.25,0.23,1.41
		c1.25,1.56,2.54,3.09,3.87,4.57c1.33,1.49,2.77,2.85,4.34,4.1c0.78,0.63,1.68,1.02,2.7,1.17c1.01,0.16,2.07,0.39,3.17,0.7
		c0.31,0.16,0.7,0.08,1.17-0.23c0.47-0.31,0.86-0.62,1.17-0.94c-0.31-0.31-0.63-0.62-0.94-0.94c-0.31-0.31-0.63-0.55-0.94-0.7
		c-2.19-0.62-4.14-1.52-5.86-2.7c-1.72-1.17-3.44-2.46-5.16-3.87c-0.63-0.47-1.21-0.94-1.76-1.41
		C522.85,524.04,522.35,523.57,521.88,523.1z"/>
	<path d="M567.13,521.93c-2.34,0.16-4.65,0.32-6.92,0.47c-2.27,0.16-4.57,0.16-6.92,0c-2.66,0-5.04-0.82-7.15-2.46
		s-3.25-4.02-3.4-7.15c-0.16-2.19,0.35-4.1,1.52-5.75c1.17-1.64,2.77-2.85,4.81-3.63c3.91-1.56,8.13-2.73,12.66-3.52
		c3.59-0.78,7.19-1.44,10.79-1.99c3.59-0.55,7.19-0.97,10.79-1.29c3.12-0.31,6.13-0.39,9.03-0.23c2.89,0.16,5.82,0.39,8.79,0.7
		c2.66,0.31,4.88,1.76,6.68,4.34c1.79,2.58,2.62,5.2,2.46,7.85c-0.32,2.97-1.56,5.55-3.75,7.74c-2.19,2.19-4.69,3.44-7.5,3.75
		c-5.32,0.31-10.63,0.59-15.94,0.82c-5.32,0.23-10.63,0.51-15.94,0.82V521.93z M592.46,424.39c1.72,0,3.4,0.16,5.04,0.47
		c1.64,0.31,3.24,1.02,4.81,2.11c3.75,2.5,5.47,5.78,5.16,9.85c-0.32,4.69-2.74,7.82-7.27,9.38c-2.03,0.63-4.03,1.1-5.98,1.41
		c-1.96,0.31-4.03,0.63-6.21,0.94c-2.5,0.47-4.96,0.9-7.39,1.29c-2.43,0.39-4.89,0.67-7.39,0.82c-2.66,0.16-5.36,0.43-8.09,0.82
		c-2.74,0.39-5.43,0.74-8.09,1.06c-3.28,0.47-6.02-0.23-8.21-2.11c-2.19-1.88-3.52-4.46-3.99-7.74c-0.32-1.56,0-3.4,0.94-5.51
		c0.94-2.11,2.34-3.63,4.22-4.57c2.5-1.41,5.08-2.5,7.74-3.28c2.66-0.78,5.39-1.33,8.21-1.64c3.12-0.47,6.21-0.94,9.26-1.41
		c3.05-0.47,6.13-0.86,9.26-1.17c1.25-0.31,2.58-0.47,3.99-0.47C589.88,424.62,591.2,424.55,592.46,424.39z M544.86,480.43
		c0-5,1.95-8.28,5.86-9.85c5.63-2.03,11.49-3.2,17.58-3.52c6.1-0.47,12.04-1.17,17.82-2.11c1.56-0.31,3.17-0.19,4.81,0.35
		c1.64,0.55,3.12,1.33,4.46,2.34c1.33,1.02,2.38,2.27,3.17,3.75c0.78,1.49,1.17,3.01,1.17,4.57c-0.16,2.66-0.98,4.85-2.46,6.56
		c-1.49,1.72-3.87,2.89-7.15,3.52c-2.19,0.47-4.46,0.78-6.8,0.94c-2.34,0.16-4.61,0.39-6.8,0.7c-2.19,0.31-4.34,0.55-6.45,0.7
		c-2.11,0.16-4.26,0.31-6.45,0.47c-2.97,0-5.94-0.23-8.91-0.7c-0.94-0.15-1.92-0.35-2.93-0.59c-1.02-0.23-1.99-0.59-2.93-1.06
		c-1.41-0.78-2.43-1.76-3.05-2.93C545.17,482.42,544.86,481.37,544.86,480.43z M556.58,518.88c-0.47-0.31-0.78-0.59-0.94-0.82
		c-0.16-0.23-0.39-0.43-0.7-0.59c-2.97-2.19-4.69-4.92-5.16-8.21c-0.31-0.62-0.63-1.17-0.94-1.64c-0.16,0.31-0.35,0.59-0.59,0.82
		c-0.24,0.23-0.43,0.51-0.59,0.82c-0.78,3.13,0.08,6.1,2.58,8.91c0.78,0.78,1.72,1.17,2.81,1.17
		C554.16,519.35,555.33,519.2,556.58,518.88z M556.58,448.77c-1.25-1.72-2.42-3.4-3.52-5.04c-1.1-1.64-2.19-3.32-3.28-5.04
		c-1.41,1.41-1.33,3.44,0.23,6.1c0.78,1.72,1.68,2.89,2.7,3.52C553.73,448.93,555.02,449.09,556.58,448.77z M551.42,474.1
		c-1.1,0.94-1.76,2.11-1.99,3.52s-0.04,2.74,0.59,3.99c1.25,2.81,3.36,3.99,6.33,3.52c-1.56-1.56-2.85-3.2-3.87-4.92
		C551.46,478.47,551.11,476.44,551.42,474.1z M593.39,469.88c0.15,2.66-0.16,5-0.94,7.03c-0.78,2.03-1.96,3.91-3.52,5.63
		c2.97,0.32,5-1.09,6.1-4.22c0.62-1.56,0.82-3.13,0.59-4.69C595.39,472.07,594.64,470.81,593.39,469.88z M595.74,443.15
		c0.31,0.16,0.7,0.23,1.17,0.23c1.88-0.31,3.48-1.64,4.81-3.99c1.33-2.35,1.68-4.37,1.05-6.1c-0.16-0.15-0.31-0.35-0.47-0.59
		c-0.16-0.23-0.39-0.27-0.7-0.12c-0.63,0-0.94,0.31-0.94,0.94c-0.47,3.6-2.03,6.57-4.69,8.91c-0.16,0-0.2,0.08-0.12,0.23
		C595.93,442.83,595.89,442.99,595.74,443.15z M605.59,506.92c-0.16-0.31-0.23-0.66-0.23-1.05c0-0.39-0.16-0.82-0.47-1.29
		c-0.16-0.31-0.39-0.62-0.7-0.94c-0.32-0.31-0.63-0.62-0.94-0.94c-0.16,0.31-0.32,0.67-0.47,1.05c-0.16,0.39-0.23,0.74-0.23,1.06
		c0,1.72-0.27,3.36-0.82,4.92c-0.55,1.56-1.52,2.97-2.93,4.22c-0.32,0.31-0.51,0.63-0.59,0.94c-0.08,0.32-0.2,0.63-0.35,0.94
		c0.94,0.32,1.64,0.47,2.11,0.47C603.71,515.05,605.59,511.93,605.59,506.92z"/>
	<path d="M644.51,483.24c0,0.78,0.04,1.6,0.12,2.46c0.08,0.86,0.04,1.76-0.12,2.7c-0.32,2.66-0.47,5.39-0.47,8.21
		c0,2.81-0.63,5.55-1.88,8.21c-2.34,5.78-6.41,8.67-12.19,8.67c-2.66,0-5.12-0.94-7.39-2.81c-2.27-1.88-3.79-4.22-4.57-7.03
		c-0.16-0.78-0.27-1.52-0.35-2.23c-0.08-0.7-0.12-1.44-0.12-2.23v-25.79c0-3.44,0.04-6.84,0.12-10.2c0.08-3.36,0.19-6.84,0.35-10.43
		c0.15-2.19,0.39-4.41,0.7-6.68c0.31-2.26,0.7-4.49,1.17-6.68c0.94-4.06,3.44-6.72,7.5-7.97c2.34-0.78,4.49-0.7,6.45,0.23
		c1.95,0.94,3.55,2.34,4.81,4.22c2.66,3.44,5.12,6.88,7.39,10.32c2.26,3.44,4.57,6.96,6.92,10.55c1.41,2.19,2.85,4.46,4.34,6.8
		c1.48,2.34,2.93,4.61,4.34,6.8c0.15-0.15,0.27-0.23,0.35-0.23c0.08,0,0.19-0.08,0.35-0.23c0-0.78,0.08-1.41,0.23-1.88
		c0-3.75,0-7.54,0-11.37c0-3.83,0.15-7.62,0.47-11.37c0.15-2.19,0.43-4.3,0.82-6.33c0.39-2.03,0.9-4.06,1.52-6.1
		c0.78-2.66,2.38-4.84,4.81-6.57c2.42-1.72,4.73-2.42,6.92-2.11c2.97,0.31,5.47,1.37,7.5,3.17c2.03,1.8,3.28,4.18,3.75,7.15
		c0.47,3.91,0.7,8.32,0.7,13.25s-0.16,9.93-0.47,15.01c-0.31,5.08-0.7,9.89-1.17,14.42c-0.47,4.54-0.86,8.29-1.17,11.25
		c-0.47,3.13-1.1,6.18-1.88,9.14c-0.78,2.97-2.27,5.63-4.46,7.97c-2.34,2.66-5.16,4.07-8.44,4.22c-3.28,0.16-6.33-0.86-9.14-3.05
		c-2.34-2.03-4.34-4.3-5.98-6.8c-1.64-2.5-3.32-4.92-5.04-7.27c-0.94-1.25-1.76-2.5-2.46-3.75c-0.7-1.25-1.45-2.5-2.23-3.75
		c-0.63-0.94-1.17-1.64-1.64-2.11C644.98,483.16,644.82,483.24,644.51,483.24z M622.7,493.32c-0.16,0-0.27,0.04-0.35,0.12
		c-0.08,0.08-0.2,0.12-0.35,0.12c-0.16,0.31-0.32,0.59-0.47,0.82c-0.16,0.23-0.23,0.51-0.23,0.82c0,0.78,0,1.49,0,2.11
		c0,0.63,0.08,1.33,0.23,2.11c0.31,2.66,1.52,5.04,3.63,7.15s4.34,3.17,6.68,3.17c0.31,0,0.62-0.08,0.94-0.23
		c0.31-0.15,0.62-0.31,0.94-0.47c-0.32-0.31-0.51-0.59-0.59-0.82c-0.08-0.23-0.28-0.43-0.59-0.59c-2.66-1.09-4.69-2.66-6.1-4.69
		c-1.41-2.03-2.43-4.46-3.05-7.27c0-0.31-0.08-0.66-0.24-1.06C623.01,494.23,622.86,493.79,622.7,493.32z M631.61,436.81
		c-1.25-1.25-2.5-1.41-3.75-0.47c-1.88,1.1-3.32,2.81-4.34,5.16c-1.02,2.34-1.29,4.61-0.82,6.8c0,0.32,0.08,0.55,0.23,0.7
		c0.15,0.16,0.31,0.39,0.47,0.7c0.31-0.31,0.59-0.55,0.82-0.7c0.23-0.15,0.43-0.39,0.59-0.7c0.47-0.94,0.7-1.88,0.7-2.81
		C626.3,441.43,628.33,438.54,631.61,436.81z M677.33,502.47h-1.17c-2.66,0.32-5.04-0.12-7.15-1.29c-2.11-1.17-3.95-2.85-5.51-5.04
		c-0.63-0.78-1.25-1.52-1.88-2.23c-0.63-0.7-1.25-1.44-1.88-2.23c-0.32-0.31-0.59-0.47-0.82-0.47s-0.51-0.08-0.82-0.23
		c0,0.31-0.04,0.59-0.12,0.82c-0.08,0.23-0.04,0.51,0.12,0.82c0.94,1.41,1.83,2.85,2.7,4.34c0.86,1.49,1.84,2.85,2.93,4.1
		c1.25,1.56,2.77,2.74,4.57,3.52c1.8,0.78,3.79,1.02,5.98,0.7c0.78-0.15,1.48-0.35,2.11-0.59
		C677.02,504.46,677.33,503.72,677.33,502.47z M669.6,447.6c0.62-1.72,1.13-3.52,1.52-5.39c0.39-1.88,0.9-3.67,1.52-5.39
		c0.62-1.72,1.52-3.28,2.7-4.69c1.17-1.41,2.77-2.5,4.81-3.28c-1.56-1.72-3.6-1.56-6.1,0.47c-1.25,0.94-2.31,2.19-3.17,3.75
		c-0.86,1.56-1.49,3.21-1.88,4.92c-0.39,1.72-0.59,3.44-0.59,5.16C668.42,444.87,668.81,446.35,669.6,447.6z"/>
	<path d="M732.43,490.51c1.25,0,2.42-0.04,3.52-0.12c1.09-0.08,2.26-0.04,3.52,0.12c2.81,0.32,5.63,0.63,8.44,0.94
		c2.81,0.32,5.55,0.86,8.21,1.64c2.19,0.47,3.87,1.8,5.04,3.99c1.17,2.19,1.52,4.46,1.05,6.8c-0.63,2.5-1.84,4.5-3.63,5.98
		c-1.8,1.49-3.95,2.15-6.45,1.99c-6.57-0.31-13.05-0.31-19.46,0c-6.41,0.31-12.9,1.09-19.46,2.34c-2.97,0.63-5.79,0.31-8.44-0.94
		c-4.07-1.56-6.72-4.34-7.97-8.32c-1.25-3.99-0.63-7.86,1.88-11.61c2.81-4.53,5.9-8.87,9.26-13.01c3.36-4.14,6.84-8.24,10.43-12.31
		c1.88-2.03,3.75-4.02,5.63-5.98c1.88-1.95,3.75-4.02,5.63-6.21c0.31-0.31,0.59-0.62,0.82-0.94c0.23-0.31,0.51-0.7,0.82-1.17
		c-2.03,0-3.95-0.04-5.74-0.12c-1.8-0.08-3.56,0.04-5.28,0.35c-2.03,0.16-4.03,0.43-5.98,0.82c-1.96,0.39-3.95,0.74-5.98,1.06
		c-2.81,0.47-5.36-0.08-7.62-1.64c-2.27-1.56-3.63-3.83-4.1-6.8c-0.31-2.19,0.19-4.34,1.52-6.45c1.33-2.11,3.24-3.55,5.74-4.34
		c2.97-0.78,5.94-1.41,8.91-1.88c2.97-0.47,5.94-0.86,8.91-1.17c4.06-0.31,8.05-0.51,11.96-0.59c3.91-0.08,7.82,0.27,11.72,1.06
		c1.72,0.31,3.44,0.74,5.16,1.29c1.72,0.55,3.2,1.29,4.46,2.23c3.12,2.03,5,4.69,5.63,7.97c0.62,3.28,0,6.49-1.88,9.61
		c-1.25,2.03-2.58,3.99-3.99,5.86c-1.41,1.88-2.81,3.75-4.22,5.63c-2.81,3.6-5.63,7.07-8.44,10.43c-2.81,3.36-5.63,6.84-8.44,10.43
		l-1.41,2.11C732.35,489.73,732.43,490.04,732.43,490.51z M703.36,441.5h-0.7c-0.32,0.32-0.78,0.94-1.41,1.88
		c-0.47,1.56-0.35,3.17,0.35,4.81c0.7,1.64,1.76,2.85,3.17,3.63c0.31,0.32,0.66,0.43,1.05,0.35c0.39-0.08,0.82-0.12,1.29-0.12
		c-0.32-0.31-0.47-0.66-0.47-1.06c0-0.39-0.16-0.74-0.47-1.06c-1.72-2.03-2.58-4.14-2.58-6.33c0-0.31-0.04-0.66-0.12-1.06
		C703.4,442.17,703.36,441.82,703.36,441.5z M710.16,510.44c0.62-0.47,1.25-0.78,1.88-0.94c-0.32-0.31-0.47-0.62-0.47-0.94
		c0-0.31-0.16-0.55-0.47-0.7c-1.88-1.25-3.52-2.66-4.92-4.22c-1.41-1.56-2.34-3.44-2.81-5.63c-0.31-0.62-0.63-0.94-0.94-0.94
		c-0.32,0-0.63,0.31-0.94,0.94c-0.16,0.31-0.23,0.86-0.23,1.64c0.62,4.22,2.73,7.5,6.33,9.85c0.31,0.31,0.7,0.47,1.17,0.47
		C709.22,509.97,709.69,510.13,710.16,510.44z M739.47,452.76c0-1.09-0.39-1.95-1.17-2.58c-0.78-0.62-1.56-0.78-2.34-0.47
		c-0.16,0-0.39,0.39-0.7,1.17c1.25,0.78,1.6,1.49,1.06,2.11c-0.55,0.63-1.06,1.25-1.52,1.88c-0.78,1.1-1.56,2.11-2.34,3.05
		c-0.78,0.94-1.56,1.88-2.34,2.81c-0.16,0.32-0.2,0.7-0.12,1.17c0.08,0.47,0.04,0.86-0.12,1.17c0.31-0.15,0.66-0.23,1.05-0.23
		c0.39,0,0.74-0.15,1.06-0.47c1.09-1.25,2.19-2.5,3.28-3.75c1.09-1.25,2.19-2.5,3.28-3.75c0.31-0.31,0.5-0.66,0.59-1.06
		C739.19,453.43,739.31,453.07,739.47,452.76z M756.12,497.31c-0.31,0.94-0.63,1.72-0.94,2.34c-0.47,0.78-0.94,1.64-1.41,2.58
		c-0.47,0.94-0.94,1.8-1.41,2.58c-0.32,0.31-0.51,0.67-0.59,1.05c-0.08,0.39-0.27,0.82-0.59,1.29c0.47,0,0.97,0.04,1.52,0.12
		c0.55,0.08,1.05,0.04,1.52-0.12c1.25-0.62,2.26-1.99,3.05-4.1C758.07,500.94,757.68,499.03,756.12,497.31z"/>
	<path d="M806.99,564.84c-0.78-0.63-1.6-1.17-2.46-1.64c-0.86-0.47-1.68-1.1-2.46-1.88c-1.72-1.72-2.46-4.03-2.23-6.92
		c0.23-2.89,1.6-5.12,4.1-6.68c2.97-1.72,5.24-3.91,6.8-6.57c1.56-2.66,2.73-5.55,3.52-8.67c0.94-3.75,1.76-7.54,2.46-11.37
		c0.7-3.83,1.44-7.7,2.23-11.61c0-0.31-0.08-0.62-0.23-0.94c-0.47,0.63-0.94,1.21-1.41,1.76c-0.47,0.55-0.94,1.05-1.41,1.52
		c-1.72,2.03-3.6,3.95-5.63,5.74c-2.03,1.8-4.38,3.17-7.03,4.1c-4.07,1.41-7.86,1.64-11.37,0.7c-3.52-0.94-6.84-2.73-9.97-5.39
		c-3.6-3.12-6.25-6.6-7.97-10.43c-1.72-3.83-2.81-8.01-3.28-12.54c-0.32-3.13-0.63-6.29-0.94-9.5c-0.31-3.2-0.31-6.37,0-9.5
		c0.31-4.37,0.7-8.68,1.17-12.9c0.47-4.22,1.56-8.36,3.28-12.43c2.03-5.31,5.47-8.28,10.32-8.91c2.19-0.31,4.41,0.27,6.68,1.76
		c2.26,1.49,3.87,3.56,4.81,6.21c0.62,2.03,1.09,4.3,1.41,6.8c0.31,3.13,0.62,6.18,0.94,9.14c0.31,2.97,0.62,6.02,0.94,9.14
		c0.15,2.81,0.43,5.63,0.82,8.44c0.39,2.81,0.97,5.55,1.76,8.21l0.94,2.81c1.56-2.19,2.89-4.3,3.99-6.33
		c3.75-6.72,6.84-13.68,9.26-20.87c2.42-7.19,4.88-14.46,7.39-21.81c0.31-1.25,0.66-2.5,1.05-3.75c0.39-1.25,0.9-2.35,1.52-3.28
		c1.25-1.88,2.73-3.05,4.46-3.52c1.72-0.47,3.59-0.55,5.63-0.23c4.06,0.94,6.57,3.36,7.5,7.27c0.94,3.6,1.72,7.23,2.34,10.9
		c0.62,3.67,0.94,7.39,0.94,11.14c0,2.03,0.08,4.07,0.23,6.1c0.15,2.03,0.23,4.07,0.23,6.1c0,19.54-3.13,38.38-9.38,56.51
		c-3.44,9.69-8.36,18.21-14.77,25.56c-1.25,1.41-2.81,2.58-4.69,3.52c-1.88,0.94-3.67,2.03-5.39,3.28
		c-0.31,0.15-0.63,0.31-0.94,0.47c-0.32,0.15-0.63,0.31-0.94,0.47H806.99z M778.39,459.56c0.31-1.25,0.59-2.3,0.82-3.17
		c0.23-0.86,0.51-1.68,0.82-2.46c0.47-1.25,1.05-2.42,1.76-3.52c0.7-1.09,1.68-2.03,2.93-2.81c0.31-0.15,0.62-0.43,0.94-0.82
		c0.31-0.39,0.62-0.74,0.94-1.06c-0.63,0-1.17-0.08-1.64-0.23c-0.47-0.15-0.94-0.15-1.41,0c-1.1,0.31-2.11,0.94-3.05,1.88
		c-0.94,0.94-1.72,1.99-2.34,3.17c-0.63,1.17-1.02,2.43-1.17,3.75c-0.16,1.33-0.08,2.54,0.23,3.63
		C777.22,457.76,777.6,458.31,778.39,459.56z M796.21,517.94c0.31-0.15,0.66-0.31,1.05-0.47c0.39-0.15,0.74-0.31,1.06-0.47
		c-0.78-0.78-1.41-1.33-1.88-1.64c-1.56-0.62-2.66-1.17-3.28-1.64c-2.97-1.56-5.43-3.52-7.39-5.86c-1.96-2.34-3.79-4.92-5.51-7.74
		c-0.16-0.31-0.39-0.51-0.7-0.59c-0.31-0.08-0.63-0.27-0.94-0.59c0,0.31-0.08,0.63-0.23,0.94c-0.16,0.31-0.16,0.63,0,0.94
		c0.94,1.72,1.83,3.48,2.7,5.28c0.86,1.8,1.91,3.48,3.17,5.04C786.91,514.74,790.89,517.01,796.21,517.94z M811.45,561.32
		c0.47-0.31,0.94-0.67,1.41-1.05c0.47-0.39,1.01-0.74,1.64-1.06c-0.47-0.31-0.94-0.59-1.41-0.82s-0.94-0.43-1.41-0.59
		c-2.19-0.47-4.07-1.72-5.63-3.75c-0.32-0.16-0.55-0.32-0.7-0.47c-0.16-0.16-0.39-0.32-0.7-0.47c-0.16,0.31-0.31,0.62-0.47,0.94
		c-0.16,0.31-0.16,0.62,0,0.94c0.15,1.56,0.97,2.93,2.46,4.1C808.13,560.27,809.73,561.01,811.45,561.32z M826.69,446.9
		c0.31,0.63,0.55,1.17,0.7,1.64c0.94-0.62,1.48-1.02,1.64-1.17c0.31,0,0.47-0.23,0.47-0.7c1.09-3.44,3.28-6.1,6.57-7.97
		c0.47-0.47,0.7-0.86,0.7-1.17c-0.32-0.62-0.7-0.94-1.17-0.94c-0.94,0-1.72,0.23-2.34,0.7C829.66,439.01,827.47,442.21,826.69,446.9
		z"/>
</g>
<g>
	<path class="st2" d="M461.15,558.75c0,3.79-1.34,7.04-4.02,9.75c-2.68,2.72-5.92,4.07-9.74,4.07h-6.84c-0.75,0-1.36-0.08-1.83-0.22
		c-0.47-0.15-0.81-0.39-1.01-0.73c-0.2-0.34-0.32-0.67-0.37-1.01c-0.05-0.34-0.07-0.79-0.07-1.36v-20.78c0-0.6,0.02-1.03,0.06-1.31
		c0.04-0.27,0.16-0.6,0.35-0.97c0.2-0.37,0.54-0.63,1.01-0.78c0.47-0.15,1.11-0.22,1.91-0.22c0.75,0,1.89,0.01,3.44,0.02
		c1.54,0.01,2.7,0.02,3.48,0.02c3.61,0,6.79,1.3,9.53,3.91C459.77,551.73,461.15,554.94,461.15,558.75z M454.53,558.9
		c0-1.99-0.7-3.67-2.11-5.03c-1.41-1.36-3.06-2.04-4.95-2.04h-3.59v14.13h3.63c1.79,0,3.41-0.67,4.86-2
		C453.81,562.63,454.53,560.95,454.53,558.9z"/>
	<path class="st2" d="M482.56,560.25c0,1.64-0.38,2.83-1.14,3.57c-0.76,0.74-1.6,1.1-2.52,1.1h-8.86c0,0.7,0.41,1.28,1.23,1.76
		s1.71,0.71,2.65,0.71c0.67,0,1.31-0.05,1.91-0.15c0.6-0.1,1.03-0.2,1.31-0.3l0.41-0.15c0.6-0.27,1.1-0.41,1.5-0.41
		c0.8,0,1.48,0.56,2.06,1.68c0.32,0.67,0.49,1.25,0.49,1.72c0,2.22-2.65,3.33-7.96,3.33c-1.84,0-3.48-0.32-4.91-0.95
		c-1.43-0.64-2.55-1.47-3.35-2.5c-0.8-1.03-1.39-2.12-1.78-3.27c-0.39-1.15-0.58-2.32-0.58-3.51c0-3.14,1.01-5.65,3.05-7.53
		c2.03-1.88,4.57-2.82,7.61-2.82c1.22,0,2.34,0.17,3.36,0.5c1.02,0.34,1.87,0.77,2.54,1.31s1.24,1.15,1.7,1.85
		c0.46,0.7,0.79,1.39,0.99,2.07C482.46,558.93,482.56,559.6,482.56,560.25z M474.68,561.52c0.95,0,1.42-0.4,1.42-1.2
		c0-0.57-0.22-1.03-0.65-1.38c-0.44-0.35-1.07-0.52-1.89-0.52c-0.8,0-1.59,0.33-2.39,0.99c-0.8,0.66-1.2,1.36-1.2,2.11H474.68z"/>
	<path class="st2" d="M484.99,546.94c0-0.57,0.02-1,0.06-1.29c0.04-0.29,0.15-0.62,0.34-0.99c0.19-0.37,0.52-0.64,0.99-0.79
		c0.47-0.15,1.11-0.22,1.91-0.22c0.77,0,1.39,0.08,1.85,0.24c0.46,0.16,0.79,0.42,0.99,0.79c0.2,0.36,0.32,0.69,0.35,0.99
		c0.04,0.3,0.06,0.74,0.06,1.31v17.3c0,0.9,0.07,1.46,0.22,1.7c0.15,0.24,0.56,0.35,1.23,0.35c0.35,0,0.61,0.02,0.78,0.06
		c0.17,0.04,0.39,0.14,0.65,0.32c0.26,0.17,0.45,0.48,0.56,0.92c0.11,0.44,0.17,1.02,0.17,1.74c0,0.77-0.06,1.4-0.17,1.87
		c-0.11,0.47-0.3,0.8-0.56,0.99c-0.26,0.19-0.49,0.3-0.67,0.34c-0.19,0.04-0.46,0.06-0.8,0.06c-1.32,0-2.38-0.05-3.18-0.15
		c-0.8-0.1-1.54-0.29-2.22-0.58c-0.69-0.29-1.2-0.73-1.53-1.33s-0.59-1.36-0.77-2.28c-0.17-0.92-0.26-2.1-0.26-3.55V546.94z"/>
	<path class="st2" d="M500.46,550.27c-0.77,0-1.4-0.08-1.87-0.22c-0.47-0.15-0.8-0.41-0.99-0.78c-0.19-0.37-0.3-0.7-0.34-0.99
		c-0.04-0.29-0.06-0.72-0.06-1.29s0.02-1,0.06-1.29c0.04-0.29,0.15-0.61,0.34-0.97c0.19-0.36,0.52-0.62,0.99-0.77
		c0.47-0.15,1.11-0.22,1.91-0.22c0.77,0,1.4,0.08,1.87,0.22c0.47,0.15,0.8,0.41,0.99,0.79c0.19,0.37,0.3,0.7,0.34,0.99
		s0.06,0.72,0.06,1.29c0,0.57-0.02,1-0.06,1.29s-0.15,0.61-0.34,0.97c-0.19,0.36-0.52,0.62-0.99,0.77
		C501.9,550.19,501.26,550.27,500.46,550.27z M497.21,556.21c0-0.57,0.02-1,0.06-1.29c0.04-0.29,0.15-0.61,0.34-0.97
		c0.19-0.36,0.52-0.62,0.99-0.77c0.47-0.15,1.11-0.22,1.91-0.22c0.62,0,1.15,0.06,1.59,0.19c0.44,0.12,0.76,0.27,0.97,0.45
		c0.21,0.17,0.37,0.43,0.49,0.77c0.11,0.34,0.17,0.62,0.19,0.86c0.01,0.24,0.02,0.59,0.02,1.07v13.08c0,0.57-0.02,1-0.06,1.29
		s-0.15,0.61-0.34,0.97c-0.19,0.36-0.52,0.62-0.99,0.77c-0.47,0.15-1.11,0.22-1.91,0.22c-0.77,0-1.4-0.08-1.87-0.22
		c-0.47-0.15-0.8-0.41-0.99-0.78c-0.19-0.37-0.3-0.7-0.34-0.97c-0.04-0.27-0.06-0.71-0.06-1.31V556.21z"/>
	<path class="st2" d="M526.59,553.37c1.29,0.77,1.94,1.59,1.94,2.47c0,0.5-0.25,1.18-0.75,2.06l-7.74,13.27
		c-0.08,0.12-0.19,0.28-0.34,0.47c-0.15,0.19-0.47,0.43-0.95,0.73c-0.49,0.3-0.99,0.45-1.51,0.45c-0.55,0-1.07-0.13-1.55-0.39
		c-0.49-0.26-0.83-0.53-1.03-0.8l-0.34-0.41l-7.77-13.31c-0.5-0.82-0.75-1.5-0.75-2.02c0-0.9,0.65-1.73,1.94-2.5
		c0.95-0.55,1.71-0.82,2.28-0.82c0.52,0,0.94,0.17,1.25,0.5c0.31,0.34,0.64,0.84,0.99,1.51l4.9,9.42l4.9-9.42
		c0.27-0.47,0.48-0.82,0.62-1.03s0.36-0.42,0.65-0.64c0.3-0.21,0.64-0.32,1.01-0.32C524.97,552.59,525.72,552.85,526.59,553.37z"/>
	<path class="st2" d="M548.45,560.25c0,1.64-0.38,2.83-1.14,3.57c-0.76,0.74-1.6,1.1-2.52,1.1h-8.86c0,0.7,0.41,1.28,1.23,1.76
		s1.71,0.71,2.65,0.71c0.67,0,1.31-0.05,1.91-0.15c0.6-0.1,1.03-0.2,1.31-0.3l0.41-0.15c0.6-0.27,1.1-0.41,1.5-0.41
		c0.8,0,1.48,0.56,2.06,1.68c0.32,0.67,0.49,1.25,0.49,1.72c0,2.22-2.65,3.33-7.96,3.33c-1.84,0-3.48-0.32-4.92-0.95
		c-1.43-0.64-2.55-1.47-3.34-2.5c-0.8-1.03-1.39-2.12-1.78-3.27c-0.39-1.15-0.58-2.32-0.58-3.51c0-3.14,1.01-5.65,3.05-7.53
		c2.03-1.88,4.57-2.82,7.61-2.82c1.22,0,2.34,0.17,3.36,0.5s1.87,0.77,2.54,1.31s1.24,1.15,1.7,1.85c0.46,0.7,0.79,1.39,0.99,2.07
		C548.35,558.93,548.45,559.6,548.45,560.25z M540.57,561.52c0.95,0,1.42-0.4,1.42-1.2c0-0.57-0.22-1.03-0.65-1.38
		c-0.44-0.35-1.06-0.52-1.89-0.52c-0.8,0-1.59,0.33-2.39,0.99s-1.2,1.36-1.2,2.11H540.57z"/>
	<path class="st2" d="M565.91,555.24c0,1.07-0.24,2.08-0.71,3.03c-0.47,0.95-1.16,1.42-2.06,1.42c-0.45,0-0.88-0.1-1.29-0.3
		c-0.41-0.2-0.83-0.3-1.25-0.3c-0.92,0-1.68,0.24-2.26,0.71c-0.59,0.47-0.88,1.05-0.88,1.72v7.85c0,0.57-0.02,1-0.06,1.29
		c-0.04,0.29-0.16,0.61-0.35,0.97c-0.2,0.36-0.54,0.62-1.01,0.77c-0.47,0.15-1.11,0.22-1.91,0.22c-0.62,0-1.15-0.06-1.59-0.19
		c-0.44-0.12-0.76-0.27-0.97-0.45c-0.21-0.17-0.37-0.43-0.49-0.77c-0.11-0.34-0.17-0.62-0.19-0.86c-0.01-0.24-0.02-0.59-0.02-1.07
		v-13.12c0-0.57,0.02-1,0.06-1.29c0.04-0.29,0.15-0.61,0.34-0.97c0.19-0.36,0.52-0.62,0.99-0.77c0.47-0.15,1.11-0.22,1.91-0.22
		c0.75,0,1.36,0.08,1.83,0.22s0.8,0.36,0.97,0.62c0.17,0.26,0.29,0.48,0.34,0.65c0.05,0.17,0.07,0.37,0.07,0.6
		c0.12-0.17,0.31-0.39,0.54-0.64s0.74-0.58,1.51-1.01s1.56-0.64,2.36-0.64c0.37,0,0.76,0.03,1.16,0.09s0.83,0.17,1.31,0.32
		c0.47,0.15,0.87,0.41,1.18,0.77S565.91,554.72,565.91,555.24z"/>
	<path class="st2" d="M586.28,553.15c1.47,0.65,2.21,1.43,2.21,2.35c0,0.4-0.19,1-0.56,1.79v0.04c-0.02,0.03-0.04,0.05-0.04,0.08
		l-9.79,21.9c-0.2,0.47-0.37,0.83-0.5,1.08c-0.14,0.25-0.35,0.49-0.65,0.71c-0.3,0.22-0.65,0.34-1.05,0.34
		c-0.5,0-1.18-0.19-2.06-0.56c-1.47-0.65-2.21-1.42-2.21-2.32c0-0.4,0.2-1.05,0.6-1.94c0.92-2.12,1.92-4.32,2.99-6.62l-7.44-12.52
		c-0.5-0.82-0.75-1.43-0.75-1.83c0-0.8,0.67-1.59,2.02-2.39c0.85-0.5,1.57-0.75,2.17-0.75c0.35,0,0.67,0.1,0.97,0.3
		c0.3,0.2,0.52,0.41,0.65,0.62c0.14,0.21,0.34,0.54,0.62,0.99c2.19,3.76,3.85,6.55,4.97,8.37c0.12-0.4,1.32-3.08,3.59-8.04
		c0.17-0.4,0.31-0.69,0.39-0.86c0.09-0.17,0.22-0.38,0.41-0.62c0.19-0.24,0.39-0.41,0.62-0.5c0.22-0.1,0.5-0.15,0.82-0.15
		C584.81,552.62,585.48,552.8,586.28,553.15z"/>
	<path class="st2" d="M622.64,572.66c-2.17,0-4.31-0.56-6.43-1.68c-2.37,1.3-4.76,1.94-7.18,1.94c-6.4,0-9.61-2.67-9.61-8
		c0-2.77,1.43-5.33,4.3-7.7c-1-2.22-1.5-4.22-1.5-6.02c0-2.49,0.75-4.34,2.24-5.53c1.5-1.2,3.56-1.79,6.2-1.79
		c2.39,0,4.24,0.6,5.53,1.79c1.3,1.2,1.94,2.83,1.94,4.9c0,0.87-0.17,1.7-0.52,2.49c-0.35,0.79-0.88,1.53-1.61,2.24
		c-0.72,0.71-1.39,1.3-2,1.76c-0.61,0.46-1.41,1.03-2.41,1.7c1.47,1.94,3.06,3.59,4.78,4.93c0.7-1.07,1.18-2.17,1.46-3.29
		c0.25-1.1,1.37-1.64,3.36-1.64c0.85,0,1.49,0.11,1.92,0.34c0.44,0.22,0.68,0.46,0.75,0.69c0.06,0.24,0.08,0.54,0.06,0.92
		c-0.1,1.89-0.87,3.78-2.32,5.64c0.37,0.08,0.72,0.11,1.05,0.11c1.94,0,2.92,0.98,2.92,2.95c0,1.37-0.22,2.25-0.67,2.65
		C624.47,572.46,623.71,572.66,622.64,572.66z M609.3,567.39c0.62,0,1.18-0.05,1.68-0.15c-1.45-1.3-2.82-2.84-4.11-4.63
		c-0.57,0.72-0.86,1.47-0.86,2.24C606.01,566.54,607.11,567.39,609.3,567.39z M608.14,550.76c0,0.9,0.21,1.91,0.64,3.03
		c1.17-0.75,2.05-1.37,2.63-1.87c0.58-0.5,0.88-0.97,0.88-1.42c0-1.1-0.61-1.64-1.83-1.64
		C608.91,548.85,608.14,549.48,608.14,550.76z"/>
	<path class="st2" d="M637.82,568.77c-0.65-0.8-0.97-1.46-0.97-1.98c0-0.75,0.54-1.64,1.61-2.69c0.62-0.6,1.25-0.9,1.87-0.9
		c0.77,0,1.72,0.56,2.84,1.68l0.19,0.19c0.1,0.12,0.25,0.29,0.45,0.49c0.2,0.2,0.58,0.47,1.16,0.8c0.57,0.34,1.13,0.5,1.68,0.5
		c2.32,0,3.48-0.95,3.48-2.84c0-0.57-0.32-1.05-0.95-1.44c-0.64-0.39-1.43-0.67-2.37-0.84c-0.95-0.17-1.97-0.46-3.06-0.84
		c-1.1-0.39-2.12-0.84-3.06-1.36c-0.95-0.52-1.74-1.35-2.37-2.49c-0.63-1.13-0.95-2.5-0.95-4.09c0-2.19,0.82-4.11,2.45-5.74
		s3.86-2.45,6.67-2.45c1.5,0,2.86,0.19,4.09,0.58c1.23,0.39,2.09,0.78,2.56,1.18l0.75,0.56l0.19,0.15c0.77,0.72,1.16,1.32,1.16,1.79
		c0,0.52-0.3,1.22-0.9,2.09c-0.85,1.25-1.72,1.87-2.62,1.87c-0.52,0-1.17-0.25-1.94-0.75c-0.08-0.05-0.22-0.17-0.43-0.37
		c-0.21-0.2-0.41-0.36-0.58-0.47c-0.17-0.11-0.47-0.22-0.88-0.34s-0.89-0.17-1.44-0.17c-0.6,0-1.17,0.19-1.7,0.58
		c-0.54,0.39-0.8,0.89-0.8,1.51c0,0.75,0.32,1.33,0.95,1.76c0.64,0.42,1.43,0.71,2.37,0.86c0.95,0.15,1.98,0.38,3.1,0.69
		s2.16,0.69,3.1,1.14c0.95,0.45,1.74,1.23,2.37,2.34c0.64,1.11,0.95,2.49,0.95,4.13c0,1.6-0.32,3.01-0.97,4.24
		c-0.65,1.23-1.49,2.19-2.52,2.86c-1.03,0.67-2.1,1.17-3.2,1.5s-2.19,0.49-3.29,0.49c-1.17,0-2.28-0.14-3.33-0.43
		s-1.9-0.64-2.56-1.05s-1.23-0.83-1.72-1.25c-0.49-0.42-0.83-0.79-1.03-1.08L637.82,568.77z"/>
	<path class="st2" d="M678.18,560.25c0,1.64-0.38,2.83-1.14,3.57c-0.76,0.74-1.6,1.1-2.52,1.1h-8.86c0,0.7,0.41,1.28,1.23,1.76
		s1.71,0.71,2.65,0.71c0.67,0,1.31-0.05,1.91-0.15c0.6-0.1,1.03-0.2,1.31-0.3l0.41-0.15c0.6-0.27,1.1-0.41,1.5-0.41
		c0.8,0,1.48,0.56,2.06,1.68c0.32,0.67,0.49,1.25,0.49,1.72c0,2.22-2.65,3.33-7.96,3.33c-1.84,0-3.48-0.32-4.92-0.95
		c-1.43-0.64-2.55-1.47-3.34-2.5c-0.8-1.03-1.39-2.12-1.78-3.27c-0.39-1.15-0.58-2.32-0.58-3.51c0-3.14,1.01-5.65,3.05-7.53
		c2.03-1.88,4.57-2.82,7.61-2.82c1.22,0,2.34,0.17,3.36,0.5s1.87,0.77,2.54,1.31s1.24,1.15,1.7,1.85c0.46,0.7,0.79,1.39,0.99,2.07
		C678.08,558.93,678.18,559.6,678.18,560.25z M670.3,561.52c0.95,0,1.42-0.4,1.42-1.2c0-0.57-0.22-1.03-0.65-1.38
		c-0.44-0.35-1.06-0.52-1.89-0.52c-0.8,0-1.59,0.33-2.39,0.99s-1.2,1.36-1.2,2.11H670.3z"/>
	<path class="st2" d="M695.64,555.24c0,1.07-0.24,2.08-0.71,3.03c-0.47,0.95-1.16,1.42-2.06,1.42c-0.45,0-0.88-0.1-1.29-0.3
		c-0.41-0.2-0.83-0.3-1.25-0.3c-0.92,0-1.68,0.24-2.26,0.71c-0.59,0.47-0.88,1.05-0.88,1.72v7.85c0,0.57-0.02,1-0.06,1.29
		c-0.04,0.29-0.16,0.61-0.35,0.97c-0.2,0.36-0.54,0.62-1.01,0.77c-0.47,0.15-1.11,0.22-1.91,0.22c-0.62,0-1.15-0.06-1.59-0.19
		c-0.44-0.12-0.76-0.27-0.97-0.45c-0.21-0.17-0.37-0.43-0.49-0.77c-0.11-0.34-0.17-0.62-0.19-0.86c-0.01-0.24-0.02-0.59-0.02-1.07
		v-13.12c0-0.57,0.02-1,0.06-1.29c0.04-0.29,0.15-0.61,0.34-0.97c0.19-0.36,0.52-0.62,0.99-0.77c0.47-0.15,1.11-0.22,1.91-0.22
		c0.75,0,1.36,0.08,1.83,0.22s0.8,0.36,0.97,0.62c0.17,0.26,0.29,0.48,0.34,0.65c0.05,0.17,0.07,0.37,0.07,0.6
		c0.12-0.17,0.31-0.39,0.54-0.64s0.74-0.58,1.51-1.01s1.56-0.64,2.36-0.64c0.37,0,0.76,0.03,1.16,0.09s0.83,0.17,1.31,0.32
		c0.47,0.15,0.87,0.41,1.18,0.77S695.64,554.72,695.64,555.24z"/>
	<path class="st2" d="M717.54,553.37c1.29,0.77,1.94,1.59,1.94,2.47c0,0.5-0.25,1.18-0.75,2.06L711,571.16
		c-0.08,0.12-0.19,0.28-0.34,0.47c-0.15,0.19-0.47,0.43-0.95,0.73c-0.49,0.3-0.99,0.45-1.51,0.45c-0.55,0-1.07-0.13-1.55-0.39
		c-0.49-0.26-0.83-0.53-1.03-0.8l-0.34-0.41l-7.77-13.31c-0.5-0.82-0.75-1.5-0.75-2.02c0-0.9,0.65-1.73,1.94-2.5
		c0.95-0.55,1.71-0.82,2.28-0.82c0.52,0,0.94,0.17,1.25,0.5c0.31,0.34,0.64,0.84,0.99,1.51l4.9,9.42l4.9-9.42
		c0.27-0.47,0.48-0.82,0.62-1.03s0.36-0.42,0.65-0.64c0.3-0.21,0.64-0.32,1.01-0.32C715.92,552.59,716.67,552.85,717.54,553.37z"/>
	<path class="st2" d="M724.79,550.27c-0.77,0-1.4-0.08-1.87-0.22c-0.47-0.15-0.8-0.41-0.99-0.78c-0.19-0.37-0.3-0.7-0.34-0.99
		c-0.04-0.29-0.06-0.72-0.06-1.29s0.02-1,0.06-1.29c0.04-0.29,0.15-0.61,0.34-0.97c0.19-0.36,0.52-0.62,0.99-0.77
		c0.47-0.15,1.11-0.22,1.91-0.22c0.77,0,1.4,0.08,1.87,0.22c0.47,0.15,0.8,0.41,0.99,0.79c0.19,0.37,0.3,0.7,0.34,0.99
		s0.06,0.72,0.06,1.29c0,0.57-0.02,1-0.06,1.29s-0.15,0.61-0.34,0.97c-0.19,0.36-0.52,0.62-0.99,0.77
		C726.22,550.19,725.58,550.27,724.79,550.27z M721.54,556.21c0-0.57,0.02-1,0.06-1.29c0.04-0.29,0.15-0.61,0.34-0.97
		c0.19-0.36,0.52-0.62,0.99-0.77c0.47-0.15,1.11-0.22,1.91-0.22c0.62,0,1.15,0.06,1.59,0.19c0.44,0.12,0.76,0.27,0.97,0.45
		c0.21,0.17,0.37,0.43,0.49,0.77c0.11,0.34,0.17,0.62,0.19,0.86c0.01,0.24,0.02,0.59,0.02,1.07v13.08c0,0.57-0.02,1-0.06,1.29
		s-0.15,0.61-0.34,0.97c-0.19,0.36-0.52,0.62-0.99,0.77c-0.47,0.15-1.11,0.22-1.91,0.22c-0.77,0-1.4-0.08-1.87-0.22
		c-0.47-0.15-0.8-0.41-0.99-0.78c-0.19-0.37-0.3-0.7-0.34-0.97c-0.04-0.27-0.06-0.71-0.06-1.31V556.21z"/>
	<path class="st2" d="M742.5,565.52c0.82-0.52,1.45-0.79,1.87-0.79c0.75,0,1.66,0.66,2.73,1.98c0.57,0.72,0.86,1.37,0.86,1.94
		c0,0.95-0.69,1.83-2.06,2.65c-1.42,1-3.16,1.5-5.23,1.5c-1.12,0-2.26-0.22-3.42-0.65c-1.16-0.44-2.25-1.05-3.27-1.85
		c-1.02-0.8-1.86-1.86-2.5-3.2c-0.65-1.33-0.97-2.81-0.97-4.43c0-1.59,0.32-3.05,0.97-4.35c0.65-1.31,1.48-2.36,2.49-3.16
		s2.09-1.41,3.25-1.83c1.16-0.42,2.29-0.63,3.38-0.63c0.95,0,1.87,0.13,2.77,0.39c0.9,0.26,1.56,0.52,1.98,0.77l0.6,0.37
		c0.45,0.3,0.79,0.54,1.03,0.71c0.24,0.17,0.46,0.42,0.67,0.73c0.21,0.31,0.32,0.65,0.32,1.03c0,0.6-0.26,1.3-0.79,2.09
		c-0.9,1.37-1.76,2.06-2.58,2.06c-0.47,0-1.15-0.27-2.02-0.82c-0.45-0.42-1.11-0.64-1.98-0.64c-0.8,0-1.56,0.3-2.28,0.9
		c-0.72,0.6-1.08,1.42-1.08,2.47c0,1.07,0.35,1.9,1.05,2.49c0.7,0.59,1.44,0.88,2.24,0.88c0.4,0,0.76-0.05,1.08-0.15
		c0.32-0.1,0.55-0.2,0.67-0.3L742.5,565.52z"/>
	<path class="st2" d="M768.82,560.25c0,1.64-0.38,2.83-1.14,3.57c-0.76,0.74-1.6,1.1-2.52,1.1h-8.86c0,0.7,0.41,1.28,1.23,1.76
		s1.71,0.71,2.65,0.71c0.67,0,1.31-0.05,1.91-0.15c0.6-0.1,1.03-0.2,1.31-0.3l0.41-0.15c0.6-0.27,1.1-0.41,1.5-0.41
		c0.8,0,1.48,0.56,2.06,1.68c0.32,0.67,0.49,1.25,0.49,1.72c0,2.22-2.65,3.33-7.96,3.33c-1.84,0-3.48-0.32-4.92-0.95
		c-1.43-0.64-2.55-1.47-3.34-2.5c-0.8-1.03-1.39-2.12-1.78-3.27c-0.39-1.15-0.58-2.32-0.58-3.51c0-3.14,1.01-5.65,3.05-7.53
		c2.03-1.88,4.57-2.82,7.61-2.82c1.22,0,2.34,0.17,3.36,0.5s1.87,0.77,2.54,1.31s1.24,1.15,1.7,1.85c0.46,0.7,0.79,1.39,0.99,2.07
		C768.72,558.93,768.82,559.6,768.82,560.25z M760.93,561.52c0.95,0,1.42-0.4,1.42-1.2c0-0.57-0.22-1.03-0.65-1.38
		c-0.44-0.35-1.06-0.52-1.89-0.52c-0.8,0-1.59,0.33-2.39,0.99s-1.2,1.36-1.2,2.11H760.93z"/>
	<path class="st2" d="M778.5,572.96c-2.52,0-4.88-0.7-7.1-2.09c-0.47-0.3-0.71-0.73-0.71-1.31c0-0.72,0.47-1.74,1.42-3.07
		c0.27-0.42,0.7-0.63,1.27-0.63c0.65,0,1.41,0.26,2.28,0.78c1.22,0.7,2.25,1.05,3.1,1.05c1.52,0,2.28-0.3,2.28-0.9
		c0-0.25-0.24-0.46-0.71-0.63c-0.47-0.17-1.07-0.31-1.79-0.41s-1.5-0.3-2.34-0.62c-0.83-0.31-1.61-0.69-2.34-1.14
		s-1.32-1.15-1.79-2.11c-0.47-0.96-0.71-2.1-0.71-3.42c0-3.94,2.7-5.91,8.11-5.91c1.77,0,3.59,0.42,5.46,1.27
		c0.87,0.4,1.31,0.95,1.31,1.64c0,0.5-0.26,1.17-0.78,2.02c-0.57,0.9-1.15,1.34-1.72,1.34c-0.3,0-0.72-0.12-1.27-0.37
		c-1.07-0.5-2.08-0.75-3.03-0.75c-1.47,0-2.21,0.27-2.21,0.82c0,0.4,0.24,0.72,0.73,0.95c0.49,0.24,1.1,0.4,1.83,0.49
		s1.53,0.26,2.37,0.5c0.85,0.25,1.64,0.56,2.37,0.92c0.73,0.36,1.35,0.97,1.83,1.83c0.49,0.86,0.73,1.91,0.73,3.16
		c0,1.35-0.24,2.47-0.73,3.38c-0.49,0.91-1.17,1.58-2.06,2.02c-0.88,0.44-1.78,0.74-2.69,0.92
		C780.71,572.87,779.67,572.96,778.5,572.96z"/>
</g>
<text transform="matrix(1 0 0 1 303.0986 791.1766)" class="st3 st4 st5">F + OM + MEN + FAST DELIVERY</text>
</svg>
