<?xml version="1.0" encoding="utf-8"?>
<!-- Generator: Adobe Illustrator 24.0.2, SVG Export Plug-In . SVG Version: 6.00 Build 0)  -->
<svg version="1.1" id="Layer_1" xmlns:svgjs="http://svgjs.com/svgjs"
	 xmlns="http://www.w3.org/2000/svg" xmlns:xlink="http://www.w3.org/1999/xlink" x="0px" y="0px" viewBox="0 0 512 512"
	 style="enable-background:new 0 0 512 512;" xml:space="preserve">
<style type="text/css">
	.st0{fill:#2F0404;}
	.st1{fill:#F49C3F;}
</style>
<g id="sLPnEY.tif">
	<g>
		<path class="st0" d="M500.3,93.89c0,107.61,0,215.21,0,322.82c-0.12,0.61-0.27,1.21-0.37,1.82c-0.79,4.87-1.23,9.83-2.41,14.59
			c-9.81,39.51-44.05,66.74-84.15,66.77c-105.1,0.07-210.2,0.02-315.31,0.02c-9.03,0-17.87-1.29-26.46-4.13
			c-36.42-12.05-60.48-45.62-60.51-84.89c-0.08-103.76-0.03-207.51-0.02-311.27c0-14.38,3.03-28.08,9.65-40.78
			c13.19-25.31,33.55-40.9,61.03-46.56c3.44-0.71,6.96-1.07,10.44-1.6c108.99,0,217.98,0,326.98,0c0.52,0.12,1.04,0.27,1.57,0.36
			c5.47,0.99,11.11,1.39,16.37,3.06c33.59,10.7,54.18,33.8,61.64,69.08C499.49,86.7,499.79,90.32,500.3,93.89z M289.25,355.99
			c6.93,0,13.86,0.01,20.79-0.01c2.57-0.01,3.11-0.81,2.36-3.36c-0.12-0.4-0.27-0.79-0.4-1.18
			c-13.22-38.26-26.45-76.53-39.67-114.79c-11.28-32.63-22.56-65.26-33.8-97.9c-0.56-1.63-1.23-2.57-3.12-2.56
			c-17.12,0.06-34.24,0.05-51.36,0.01c-1.86,0-2.52,0.75-2.52,2.61c0,7.37-1.42,14.47-3.78,21.43
			c-13.63,40.11-27.19,80.24-40.78,120.37c-8.01,23.64-16.01,47.28-24.01,70.93c-1.27,3.77-0.77,4.46,3.08,4.46
			c12.02,0,24.05,0,36.07,0c3.18,0,3.78-0.47,4.78-3.64c4.77-15.14,9.59-30.27,14.26-45.45c0.7-2.26,1.68-2.9,3.98-2.89
			c23.44,0.1,46.87,0.09,70.31,0.01c2.18-0.01,3.16,0.62,3.87,2.78c5.07,15.41,10.31,30.77,15.42,46.17
			c0.72,2.17,1.86,3.11,4.15,3.07C275.66,355.92,282.46,355.99,289.25,355.99z M334.52,272.44c0,26.48,0,52.96,0,79.44
			c0,3.58,0.85,4.45,4.31,4.46c12.3,0.01,24.6,0,36.89,0c3.49,0,4.16-0.67,4.16-4.27c0-52.89,0-105.78,0-158.68
			c0-3.34-0.67-4.01-3.96-4.01c-12.37,0-24.73,0-37.1,0c-3.84,0-4.31,0.48-4.31,4.45C334.52,220.03,334.52,246.23,334.52,272.44z
			 M332.42,145.09c-0.35,15.37,10.19,26.54,25.53,26.45c14.27-0.08,24.81-11.15,24.78-26.32c-0.02-13.75-8.67-25.85-24.97-25.8
			C344.06,119.46,331.82,130.19,332.42,145.09z"/>
		<path class="st1" d="M289.25,355.99c-6.79,0-13.59-0.07-20.38,0.04c-2.29,0.04-3.43-0.9-4.15-3.07
			c-5.11-15.4-10.35-30.75-15.42-46.17c-0.71-2.16-1.69-2.79-3.87-2.78c-23.44,0.09-46.87,0.09-70.31-0.01
			c-2.29-0.01-3.28,0.63-3.98,2.89c-4.67,15.18-9.49,30.3-14.26,45.45c-1,3.17-1.6,3.64-4.78,3.64c-12.02,0-24.05,0-36.07,0
			c-3.85,0-4.35-0.69-3.08-4.46c7.99-23.65,16-47.29,24.01-70.93c13.59-40.12,27.16-80.26,40.78-120.37
			c2.36-6.96,3.78-14.06,3.78-21.43c0-1.86,0.66-2.61,2.52-2.61c17.12,0.04,34.24,0.05,51.36-0.01c1.89-0.01,2.56,0.93,3.12,2.56
			c11.24,32.64,22.52,65.27,33.8,97.9c13.22,38.26,26.45,76.53,39.67,114.79c0.14,0.39,0.29,0.78,0.4,1.18
			c0.75,2.55,0.21,3.35-2.36,3.36C303.11,356,296.18,355.99,289.25,355.99z M209.5,174.14c-7.17,29.94-17.01,58.57-25.31,87.76
			c17.34,0,34.47,0,51.82,0C227.18,232.67,218.42,203.67,209.5,174.14z"/>
		<path class="st1" d="M334.52,272.44c0-26.2,0-52.4,0-78.61c0-3.97,0.47-4.45,4.31-4.45c12.37,0,24.73,0,37.1,0
			c3.29,0,3.96,0.67,3.96,4.01c0,52.89,0,105.78,0,158.68c0,3.61-0.66,4.27-4.16,4.27c-12.3,0-24.6,0-36.89,0
			c-3.46,0-4.31-0.87-4.31-4.46C334.51,325.4,334.52,298.92,334.52,272.44z"/>
		<path class="st1" d="M332.42,145.09c-0.59-14.9,11.64-25.62,25.35-25.66c16.3-0.05,24.95,12.05,24.97,25.8
			c0.03,15.17-10.51,26.23-24.78,26.32C342.61,171.63,332.06,160.46,332.42,145.09z"/>
		<path class="st0" d="M209.5,174.14c8.92,29.53,17.68,58.53,26.51,87.76c-17.36,0-34.49,0-51.82,0
			C192.48,232.71,202.33,204.09,209.5,174.14z"/>
	</g>
</g>
</svg>
