<?xml version="1.0" encoding="utf-8"?>
<!-- Generator: Adobe Illustrator 24.0.2, SVG Export Plug-In . SVG Version: 6.00 Build 0)  -->
<svg version="1.1" id="Layer_1" xmlns:svgjs="http://svgjs.com/svgjs"
	 xmlns="http://www.w3.org/2000/svg" xmlns:xlink="http://www.w3.org/1999/xlink" x="0px" y="0px" viewBox="0 0 512 512"
	 style="enable-background:new 0 0 512 512;" xml:space="preserve">
<style type="text/css">
	.st0{fill:#430D20;}
	.st1{fill:#ED4E6E;}
	.st2{fill:#565656;}
</style>
<g>
	<path class="st0" d="M3.89,419.12c0-109.08,0-218.16,0-327.23c0.42-2.96,0.44-5.95,0.71-8.93c0.6-6.79,2.9-13.08,5.51-19.29
		c4.95-11.77,12.25-21.91,21.59-30.55c11.72-10.83,25.35-18.18,40.97-21.66c3.64-0.81,7.39-0.77,11.1-1.07
		c0.47-0.04,0.98,0.15,1.41-0.21c113.27,0,226.54,0,339.81,0c2.66,0.38,5.35,0.41,8.02,0.6c6.74,0.46,13.04,2.61,19.19,5.2
		c20.66,8.69,35.98,23.17,46.14,43.08c3.47,6.8,6.02,13.97,7.48,21.5c0.61,3.16,0.65,6.37,0.85,9.57
		c0.37,5.92,0.23,11.86,0.23,17.79c0,101.66-0.11,203.32,0.09,304.98c0.04,20.99-6.41,39.34-19.55,55.43
		c-13.32,16.31-30.36,26.75-50.98,31.15c-4.97,1.06-10.09,1.1-15.15,1.1c-110.67,0.05-221.34,0.01-332.02,0.07
		c-21.06,0.01-39.17-7.46-55.01-20.93c-13.9-11.82-23.18-26.64-28.24-44.15c-1.42-4.93-1.56-9.98-1.95-15.02
		C4.06,420.05,4.21,419.55,3.89,419.12z"/>
	<path class="st1" d="M374.71,225.47c0,33.72-0.04,67.45,0.04,101.17c0.01,5.16,0.6,10.31,0.84,15.47c0.18,3.81-0.2,4.26-3.81,5.73
		c-17.38,7.05-35.48,10.69-54.16,11.88c-14.05,0.9-27.88,0.05-41.48-3.86c-20.75-5.98-36.95-17.78-47.39-36.94
		c-5.05-9.26-7.7-19.29-8.86-29.72c-1.36-12.28-1.63-24.58,1.67-36.6c9.17-33.43,30.96-54.32,64.16-63.43
		c12.91-3.54,26.15-4.21,39.48-3.14c2.36,0.19,2.56,0.01,2.56-2.52c0.01-20.53,0-41.06,0.01-61.58c0-3.98,0.19-4.16,4.11-4.18
		c13.27-0.05,26.53-0.08,39.8-0.16c1.91-0.01,2.87,0.83,2.91,2.73c0.02,0.91,0.03,1.82,0.03,2.72c0,34.14,0,68.29,0,102.43
		C374.64,225.47,374.68,225.47,374.71,225.47z"/>
	<path class="st1" d="M186.57,246.28c0,34.77,0,69.55,0,104.32c0,0.77,0.01,1.54-0.01,2.3c-0.07,2.89-0.91,3.76-3.78,3.78
		c-4.26,0.03-8.52,0.01-12.78,0.01c-8.73,0-17.46,0.01-26.19,0c-3.09,0-3.68-0.54-3.91-3.58c-0.11-1.39-0.15-2.79-0.15-4.18
		c-0.01-68.71-0.01-137.42,0-206.12c0-1.53,0.1-3.07,0.2-4.6c0.1-1.61,1.03-2.37,2.6-2.4c0.77-0.02,1.54-0.03,2.3-0.03
		c12.78-0.02,25.56-0.03,38.33-0.05c2.13,0,3.1,0.8,3.32,2.89c0.09,0.83,0.05,1.67,0.05,2.51
		C186.57,176.17,186.57,211.22,186.57,246.28z"/>
	<path class="st0" d="M266.96,267.83c0.46-22.07,15.78-36.36,33.65-41.45c8.04-2.29,16.22-2.5,24.47-1.1
		c1.98,0.34,2.79,1.15,2.79,3.3c-0.07,29.04-0.07,58.08,0,87.12c0,2.16-0.86,2.93-2.82,3.3c-3.12,0.58-6.26,0.32-9.39,0.48
		c-2.66,0.22-5.33,0.23-7.99,0c-11.34-0.74-21.61-4.02-29.53-12.67c-5.57-6.08-8.46-13.49-10.17-21.42
		c-0.56-2.58-0.99-5.19-0.99-7.85C266.72,274.29,266.72,271.06,266.96,267.83z"/>
	<path class="st0" d="M266.96,267.83c0,3.23,0,6.46,0,9.69C266.38,274.29,266.41,271.06,266.96,267.83z"/>
	<path class="st2" d="M307.65,319.47c2.66,0,5.33,0,7.99,0C312.98,320.01,310.31,320.02,307.65,319.47z"/>
</g>
</svg>
