<?xml version="1.0" encoding="utf-8"?>
<!-- Generator: Adobe Illustrator 24.0.2, SVG Export Plug-In . SVG Version: 6.00 Build 0)  -->
<svg version="1.1" id="Layer_1" xmlns:svgjs="http://svgjs.com/svgjs"
	 xmlns="http://www.w3.org/2000/svg" xmlns:xlink="http://www.w3.org/1999/xlink" x="0px" y="0px" viewBox="0 0 512 512"
	 style="enable-background:new 0 0 512 512;" xml:space="preserve">
<style type="text/css">
	.st0{fill:#051F34;}
	.st1{fill:#4EACF8;}
</style>
<g id="_x32_vsflH.tif">
	<g>
		<path class="st0" d="M423.16,503.15c-111.9,0-223.79,0-335.69,0c-0.54-0.12-1.08-0.32-1.62-0.35c-10.7-0.76-20.97-3.31-30.61-7.99
			c-27.18-13.2-43.93-34.61-50.03-64.24c-0.77-3.73-1.11-7.56-1.66-11.34c0-107.83,0-215.66,0-323.49c0.13-0.6,0.34-1.2,0.39-1.81
			c0.51-6.93,1.87-13.7,4.08-20.28C20.56,36.45,53.98,12.32,93.26,12.3c108.04-0.04,216.09-0.04,324.13,0.06
			c6.18,0.01,12.48,0.55,18.52,1.83c42.22,8.97,71.12,44.76,71.13,87.93c0.04,103.7,0.01,207.4,0.01,311.09
			c0,8.43-0.84,16.78-3.36,24.83c-10.81,34.56-33.93,55.79-69.37,63.48C430.66,502.33,426.89,502.62,423.16,503.15z M116.91,248.7
			c0,35.45,0,70.89,0,106.34c0,3.71,0.42,4.13,4.04,4.13c12.38,0,24.75,0,37.13,0c3.64,0,4.16-0.51,4.16-4.07
			c0-20.9-0.01-41.81,0.01-62.71c0-3.93-0.41-3.58,3.65-3.53c5.52,0.06,11.04,0.33,16.56,0.35c15.32,0.07,30.47-1.31,44.99-6.5
			c19.95-7.13,34.79-19.98,42.68-39.95c5.05-12.78,6.19-26.2,4.68-39.79c-1.41-12.72-5.54-24.49-13.29-34.82
			c-10.38-13.84-24.52-21.96-40.88-26.6c-12.07-3.42-24.45-4.48-36.93-4.29c-20.97,0.32-41.94,0.8-62.91,1.19
			c-3.78,0.07-3.89,0.13-3.89,3.91C116.91,177.81,116.91,213.26,116.91,248.7z M298.05,332.18c0,5.87,0.06,11.75-0.03,17.62
			c-0.04,2.37,0.98,3.84,3.08,4.71c1.74,0.72,3.46,1.52,5.23,2.15c14.26,5.09,29.04,6.82,44.09,6.84
			c10.68,0.02,21.24-0.99,31.43-4.35c21.45-7.07,35.31-20.87,37.66-44.13c1.56-15.41-3.08-28.72-15.08-39.03
			c-6.75-5.8-14.59-9.86-22.61-13.5c-8.71-3.95-17.69-7.28-26.38-11.26c-3.69-1.69-7.33-3.92-10.3-6.65
			c-5.7-5.24-3.57-13.86,3.83-16.13c3.24-1,6.69-1.62,10.07-1.77c11.19-0.51,22.2,0.98,32.93,4.12c4.73,1.38,9.27,3.45,13.83,5.37
			c3.49,1.47,5.25,0.47,5.26-3.26c0.01-3.57,0-7.13,0-10.7c0-7.2,0.02-14.4-0.02-21.61c-0.02-3.25-0.54-4.04-3.57-5.12
			c-2.82-1.01-5.66-2.06-8.57-2.73c-14.28-3.3-28.78-4-43.35-3.2c-11.59,0.64-22.55,3.57-32.71,9.44
			c-27.83,16.08-34.29,56.62-7.06,78.66c8.05,6.52,17.18,11.22,26.67,15.24c7.33,3.1,14.75,6,21.98,9.32
			c2.67,1.23,5.2,3.11,7.25,5.22c4.88,5.04,3.44,12.48-3.03,15.18c-3.36,1.4-7.08,2.36-10.71,2.6
			c-20.02,1.37-38.87-2.89-56.46-12.58c-2.59-1.43-3.41-0.99-3.42,1.93C298.03,320.43,298.05,326.31,298.05,332.18z"/>
		<path class="st1" d="M116.91,248.7c0-35.45,0-70.89,0-106.34c0-3.78,0.12-3.84,3.89-3.91c20.97-0.39,41.94-0.87,62.91-1.19
			c12.49-0.19,24.86,0.87,36.93,4.29c16.36,4.64,30.5,12.76,40.88,26.6c7.75,10.33,11.88,22.1,13.29,34.82
			c1.5,13.59,0.37,27.01-4.68,39.79c-7.89,19.97-22.73,32.82-42.68,39.95c-14.53,5.19-29.68,6.57-44.99,6.5
			c-5.52-0.02-11.04-0.29-16.56-0.35c-4.06-0.05-3.65-0.4-3.65,3.53c-0.01,20.9,0,41.81-0.01,62.71c0,3.56-0.52,4.07-4.16,4.07
			c-12.38,0-24.75,0-37.13,0c-3.62,0-4.04-0.42-4.04-4.13C116.91,319.59,116.91,284.15,116.91,248.7z M162.62,249.25
			c0.56,0.08,1.03,0.21,1.5,0.22c6.08,0.12,12.15,0.27,18.23,0.32c8.74,0.06,17.3-1.32,25.47-4.37
			c10.49-3.92,18.51-10.57,20.86-22.11c0.91-4.47,1.3-9.2,0.94-13.73c-1.02-12.75-7.29-22.07-19.37-27.03
			c-6.86-2.82-14.05-4.16-21.46-4.19c-7.34-0.04-14.68,0.02-22.02,0.07c-1.37,0.01-2.74,0.22-4.16,0.34
			C162.62,202.38,162.62,225.77,162.62,249.25z"/>
		<path class="st1" d="M298.05,332.18c0-5.87-0.02-11.75,0.01-17.62c0.01-2.92,0.83-3.36,3.42-1.93
			c17.6,9.69,36.44,13.95,56.46,12.58c3.62-0.25,7.35-1.2,10.71-2.6c6.46-2.69,7.91-10.14,3.03-15.18c-2.05-2.11-4.59-4-7.25-5.22
			c-7.23-3.32-14.65-6.22-21.98-9.32c-9.49-4.02-18.62-8.72-26.67-15.24c-27.23-22.04-20.77-62.58,7.06-78.66
			c10.16-5.87,21.12-8.8,32.71-9.44c14.57-0.8,29.07-0.1,43.35,3.2c2.91,0.67,5.75,1.72,8.57,2.73c3.03,1.08,3.55,1.87,3.57,5.12
			c0.04,7.2,0.01,14.4,0.02,21.61c0,3.57,0.01,7.13,0,10.7c-0.01,3.73-1.77,4.73-5.26,3.26c-4.56-1.92-9.1-3.99-13.83-5.37
			c-10.73-3.14-21.74-4.63-32.93-4.12c-3.38,0.16-6.83,0.78-10.07,1.77c-7.4,2.27-9.53,10.89-3.83,16.13
			c2.98,2.73,6.61,4.96,10.3,6.65c8.69,3.98,17.68,7.31,26.38,11.26c8.02,3.64,15.86,7.7,22.61,13.5
			c11.99,10.31,16.63,23.62,15.08,39.03c-2.35,23.26-16.21,37.06-37.66,44.13c-10.19,3.36-20.75,4.36-31.43,4.35
			c-15.05-0.02-29.83-1.75-44.09-6.84c-1.77-0.63-3.49-1.43-5.23-2.15c-2.1-0.87-3.11-2.34-3.08-4.71
			C298.1,343.93,298.05,338.05,298.05,332.18z"/>
		<path class="st0" d="M162.62,249.25c0-23.48,0-46.87,0-70.49c1.43-0.12,2.79-0.33,4.16-0.34c7.34-0.06,14.68-0.11,22.02-0.07
			c7.41,0.04,14.59,1.37,21.46,4.19c12.08,4.96,18.35,14.28,19.37,27.03c0.36,4.53-0.03,9.27-0.94,13.73
			c-2.35,11.54-10.37,18.2-20.86,22.11c-8.17,3.05-16.73,4.43-25.47,4.37c-6.08-0.04-12.15-0.2-18.23-0.32
			C163.65,249.46,163.18,249.34,162.62,249.25z"/>
	</g>
</g>
</svg>
