<?xml version="1.0" encoding="utf-8"?>
<!-- Generator: Adobe Illustrator 24.0.2, SVG Export Plug-In . SVG Version: 6.00 Build 0)  -->
<svg version="1.1" id="Layer_1" xmlns="http://www.w3.org/2000/svg" xmlns:xlink="http://www.w3.org/1999/xlink" x="0px" y="0px"
	 viewBox="0 0 256 221" style="enable-background:new 0 0 256 221;" xml:space="preserve">
<style type="text/css">
	.st0{fill:#F5DA50;}
</style>
<g id="tsIZ3k_1_">
	<g>
		<path class="st0" d="M236.7,111.1c0,35.4,0,70.7,0,106.1c0,1.5-0.2,1.9-1.8,1.9c-70.9-0.1-141.8-0.1-212.7,0c-1.7,0-1.9-0.5-1.9-2
			c0-70.8,0-141.6,0-212.4c0-1.6,0.3-2,1.9-2c70.8,0.1,141.6,0.1,212.4,0c1.8,0,2,0.5,2,2.1C236.7,40.2,236.7,75.7,236.7,111.1z"/>
		<path d="M185.4,202.1c-11.1-0.1-21.6-3.3-30-11.9c-2.2-2.2-3.9-4.7-5.5-7.4c-0.5-0.9-0.7-1.5,0.4-2.1c4.7-2.7,9.4-5.3,14-8.1
			c1.5-0.9,1.8,0.1,2.4,0.9c3.5,5.4,8.1,9.2,14.7,10.3c4,0.6,8.1,0.6,11.9-1.1c7.4-3.3,8.4-11.9,1.8-16.7c-2.7-2-5.7-3.3-8.7-4.6
			c-5.5-2.5-11.2-4.7-16.5-7.8c-13.9-8.3-16.9-21.8-13.7-33.4c3-10.9,11.1-16.6,21.9-18.6c5.4-1,10.9-0.8,16.3,0.4
			c8.3,1.9,14.2,6.8,18.6,13.9c0.6,0.9,0.6,1.5-0.4,2.2c-4.5,2.8-8.9,5.6-13.3,8.5c-1.4,0.9-1.8,0.1-2.4-0.8
			c-2.7-4.5-6.6-7.1-12-7.1c-4.6,0-8.1,2.3-9.3,6c-1.3,4.2,0.2,8.3,4.1,10.9c3.5,2.4,7.5,3.9,11.3,5.5c6.1,2.6,12.1,5.5,17.6,9.4
			c14.9,10.6,14.4,35,1,44.7C202.6,200.3,194.6,202,185.4,202.1z"/>
		<path d="M138.1,140c0,10.3,0,20.6,0,30.9c0,4.8-0.4,9.6-2.2,14.2c-4.2,11-12.8,15.8-24,16.8c-9.8,0.9-19-0.9-26.7-7.6
			c-3-2.6-5.3-5.7-7.2-9.2c-0.7-1.2-0.5-1.8,0.7-2.5c4.6-2.7,9.2-5.5,13.7-8.3c1.1-0.7,1.7-0.5,2.2,0.6c0.7,1.3,1.6,2.6,2.4,3.8
			c3.2,4.5,7.6,5.9,12.8,5c4.7-0.8,7.1-3.8,7.7-9.2c0.2-1.7,0.1-3.5,0.1-5.2c0-21.5,0-42.9,0-64.4c0-2.3,0.6-3,2.9-2.9
			c5,0.2,10.1,0.1,15.1,0c1.9,0,2.5,0.5,2.4,2.4C138.1,116.3,138.1,128.1,138.1,140z"/>
	</g>
</g>
</svg>
